<svg width="639" height="198" viewBox="0 0 639 198" fill="none" xmlns="http://www.w3.org/2000/svg">
<g opacity="0.24">
<line x1="0.5" y1="198" x2="0.5" y2="100" stroke="white"/>
<line x1="9.33594" y1="198" x2="9.33594" y2="100" stroke="white"/>
<line x1="16.5654" y1="198" x2="16.5654" y2="100" stroke="white"/>
<line x1="24.5986" y1="198" x2="24.5986" y2="100" stroke="white" stroke-opacity="0.8"/>
<line x1="32.6309" y1="198" x2="32.6309" y2="100" stroke="white" stroke-opacity="0.7"/>
<line x1="39.8604" y1="198" x2="39.8604" y2="100" stroke="white" stroke-opacity="0.6"/>
<line x1="51.1064" y1="198" x2="51.1064" y2="100" stroke="white" stroke-opacity="0.4"/>
<line x1="59.1396" y1="198" x2="59.1396" y2="100" stroke="white" stroke-opacity="0.2"/>
<line x1="66.3691" y1="198" x2="66.3691" y2="100" stroke="white" stroke-opacity="0.1"/>
<line x1="74.4014" y1="198" x2="74.4014" y2="100" stroke="white" stroke-opacity="0.1"/>
<line y1="-0.5" x2="98" y2="-0.5" transform="matrix(0 -1 -1 0 160.049 198)" stroke="white"/>
<line y1="-0.5" x2="98" y2="-0.5" transform="matrix(0 -1 -1 0 151.213 198)" stroke="white"/>
<line y1="-0.5" x2="98" y2="-0.5" transform="matrix(0 -1 -1 0 143.983 198)" stroke="white"/>
<line y1="-0.5" x2="98" y2="-0.5" transform="matrix(0 -1 -1 0 135.95 198)" stroke="white" stroke-opacity="0.8"/>
<line y1="-0.5" x2="98" y2="-0.5" transform="matrix(0 -1 -1 0 127.918 198)" stroke="white" stroke-opacity="0.7"/>
<line y1="-0.5" x2="98" y2="-0.5" transform="matrix(0 -1 -1 0 120.688 198)" stroke="white" stroke-opacity="0.6"/>
<line y1="-0.5" x2="98" y2="-0.5" transform="matrix(0 -1 -1 0 109.442 198)" stroke="white" stroke-opacity="0.4"/>
<line y1="-0.5" x2="98" y2="-0.5" transform="matrix(0 -1 -1 0 101.409 198)" stroke="white" stroke-opacity="0.2"/>
<line y1="-0.5" x2="98" y2="-0.5" transform="matrix(0 -1 -1 0 94.1797 198)" stroke="white" stroke-opacity="0.1"/>
<line y1="-0.5" x2="98" y2="-0.5" transform="matrix(0 -1 -1 0 86.1475 198)" stroke="white" stroke-opacity="0.1"/>
</g>
<g opacity="0.24">
<line x1="308.016" y1="198" x2="308.016" y2="100" stroke="white"/>
<line x1="316.852" y1="198" x2="316.852" y2="100" stroke="white"/>
<line x1="324.081" y1="198" x2="324.081" y2="100" stroke="white"/>
<line x1="332.114" y1="198" x2="332.114" y2="100" stroke="white" stroke-opacity="0.8"/>
<line x1="340.146" y1="198" x2="340.146" y2="100" stroke="white" stroke-opacity="0.7"/>
<line x1="347.376" y1="198" x2="347.376" y2="100" stroke="white" stroke-opacity="0.6"/>
<line x1="358.622" y1="198" x2="358.622" y2="100" stroke="white" stroke-opacity="0.4"/>
<line x1="366.655" y1="198" x2="366.655" y2="100" stroke="white" stroke-opacity="0.2"/>
<line x1="373.885" y1="198" x2="373.885" y2="100" stroke="white" stroke-opacity="0.1"/>
<line x1="381.917" y1="198" x2="381.917" y2="100" stroke="white" stroke-opacity="0.1"/>
<line y1="-0.5" x2="98" y2="-0.5" transform="matrix(0 -1 -1 0 467.564 198)" stroke="white"/>
<line y1="-0.5" x2="98" y2="-0.5" transform="matrix(0 -1 -1 0 458.729 198)" stroke="white"/>
<line y1="-0.5" x2="98" y2="-0.5" transform="matrix(0 -1 -1 0 451.499 198)" stroke="white"/>
<line y1="-0.5" x2="98" y2="-0.5" transform="matrix(0 -1 -1 0 443.466 198)" stroke="white" stroke-opacity="0.8"/>
<line y1="-0.5" x2="98" y2="-0.5" transform="matrix(0 -1 -1 0 435.434 198)" stroke="white" stroke-opacity="0.7"/>
<line y1="-0.5" x2="98" y2="-0.5" transform="matrix(0 -1 -1 0 428.204 198)" stroke="white" stroke-opacity="0.6"/>
<line y1="-0.5" x2="98" y2="-0.5" transform="matrix(0 -1 -1 0 416.958 198)" stroke="white" stroke-opacity="0.4"/>
<line y1="-0.5" x2="98" y2="-0.5" transform="matrix(0 -1 -1 0 408.925 198)" stroke="white" stroke-opacity="0.2"/>
<line y1="-0.5" x2="98" y2="-0.5" transform="matrix(0 -1 -1 0 401.695 198)" stroke="white" stroke-opacity="0.1"/>
<line y1="-0.5" x2="98" y2="-0.5" transform="matrix(0 -1 -1 0 393.663 198)" stroke="white" stroke-opacity="0.1"/>
</g>
<g opacity="0.24">
<line x1="476.016" y1="198" x2="476.016" y2="100" stroke="white"/>
<line x1="484.852" y1="198" x2="484.852" y2="100" stroke="white"/>
<line x1="492.081" y1="198" x2="492.081" y2="100" stroke="white"/>
<line x1="500.114" y1="198" x2="500.114" y2="100" stroke="white" stroke-opacity="0.8"/>
<line x1="508.146" y1="198" x2="508.146" y2="100" stroke="white" stroke-opacity="0.7"/>
<line x1="515.376" y1="198" x2="515.376" y2="100" stroke="white" stroke-opacity="0.6"/>
<line x1="526.622" y1="198" x2="526.622" y2="100" stroke="white" stroke-opacity="0.4"/>
<line x1="534.655" y1="198" x2="534.655" y2="100" stroke="white" stroke-opacity="0.2"/>
<line x1="541.885" y1="198" x2="541.885" y2="100" stroke="white" stroke-opacity="0.1"/>
<line x1="549.917" y1="198" x2="549.917" y2="100" stroke="white" stroke-opacity="0.1"/>
<line y1="-0.5" x2="98" y2="-0.5" transform="matrix(0 -1 -1 0 635.564 198)" stroke="white"/>
<line y1="-0.5" x2="98" y2="-0.5" transform="matrix(0 -1 -1 0 626.729 198)" stroke="white"/>
<line y1="-0.5" x2="98" y2="-0.5" transform="matrix(0 -1 -1 0 619.499 198)" stroke="white"/>
<line y1="-0.5" x2="98" y2="-0.5" transform="matrix(0 -1 -1 0 611.466 198)" stroke="white" stroke-opacity="0.8"/>
<line y1="-0.5" x2="98" y2="-0.5" transform="matrix(0 -1 -1 0 603.434 198)" stroke="white" stroke-opacity="0.7"/>
<line y1="-0.5" x2="98" y2="-0.5" transform="matrix(0 -1 -1 0 596.204 198)" stroke="white" stroke-opacity="0.6"/>
<line y1="-0.5" x2="98" y2="-0.5" transform="matrix(0 -1 -1 0 584.958 198)" stroke="white" stroke-opacity="0.4"/>
<line y1="-0.5" x2="98" y2="-0.5" transform="matrix(0 -1 -1 0 576.925 198)" stroke="white" stroke-opacity="0.2"/>
<line y1="-0.5" x2="98" y2="-0.5" transform="matrix(0 -1 -1 0 569.695 198)" stroke="white" stroke-opacity="0.1"/>
<line y1="-0.5" x2="98" y2="-0.5" transform="matrix(0 -1 -1 0 561.663 198)" stroke="white" stroke-opacity="0.1"/>
</g>
<g opacity="0.24">
<line x1="613.396" y1="100" x2="613.396" y2="2" stroke="white"/>
<line x1="622.288" y1="100" x2="622.288" y2="2" stroke="white"/>
<line x1="629.562" y1="100" x2="629.562" y2="2" stroke="white"/>
<line x1="637.646" y1="100" x2="637.646" y2="2" stroke="white" stroke-opacity="0.8"/>
</g>
<g opacity="0.24">
<line x1="444.498" y1="99" x2="444.498" y2="1" stroke="white"/>
<line x1="453.39" y1="99" x2="453.39" y2="1" stroke="white"/>
<line x1="460.664" y1="99" x2="460.664" y2="1" stroke="white"/>
<line x1="468.748" y1="99" x2="468.748" y2="1" stroke="white" stroke-opacity="0.8"/>
<line x1="476.831" y1="99" x2="476.831" y2="1" stroke="white" stroke-opacity="0.7"/>
<line x1="484.105" y1="99" x2="484.105" y2="1" stroke="white" stroke-opacity="0.6"/>
<line x1="495.423" y1="99" x2="495.423" y2="1" stroke="white" stroke-opacity="0.4"/>
<line x1="503.507" y1="99" x2="503.507" y2="1" stroke="white" stroke-opacity="0.2"/>
<line x1="510.781" y1="99" x2="510.781" y2="1" stroke="white" stroke-opacity="0.1"/>
<line x1="518.864" y1="99" x2="518.864" y2="1" stroke="white" stroke-opacity="0.1"/>
<line y1="-0.5" x2="98" y2="-0.5" transform="matrix(0 -1 -1 0 605.047 99)" stroke="white"/>
<line y1="-0.5" x2="98" y2="-0.5" transform="matrix(0 -1 -1 0 596.155 99)" stroke="white"/>
<line y1="-0.5" x2="98" y2="-0.5" transform="matrix(0 -1 -1 0 588.881 99)" stroke="white"/>
<line y1="-0.5" x2="98" y2="-0.5" transform="matrix(0 -1 -1 0 580.797 99)" stroke="white" stroke-opacity="0.8"/>
<line y1="-0.5" x2="98" y2="-0.5" transform="matrix(0 -1 -1 0 572.714 99)" stroke="white" stroke-opacity="0.7"/>
<line y1="-0.5" x2="98" y2="-0.5" transform="matrix(0 -1 -1 0 565.439 99)" stroke="white" stroke-opacity="0.6"/>
<line y1="-0.5" x2="98" y2="-0.5" transform="matrix(0 -1 -1 0 554.122 99)" stroke="white" stroke-opacity="0.4"/>
<line y1="-0.5" x2="98" y2="-0.5" transform="matrix(0 -1 -1 0 546.038 99)" stroke="white" stroke-opacity="0.2"/>
<line y1="-0.5" x2="98" y2="-0.5" transform="matrix(0 -1 -1 0 538.764 99)" stroke="white" stroke-opacity="0.1"/>
<line y1="-0.5" x2="98" y2="-0.5" transform="matrix(0 -1 -1 0 530.681 99)" stroke="white" stroke-opacity="0.1"/>
</g>
<g opacity="0.24">
<line x1="0.5" y1="98" x2="0.5" stroke="white"/>
<line x1="9.33594" y1="98" x2="9.33594" stroke="white"/>
<line x1="16.5654" y1="98" x2="16.5654" stroke="white"/>
<line x1="24.5986" y1="98" x2="24.5986" stroke="white" stroke-opacity="0.8"/>
<line x1="32.6309" y1="98" x2="32.6309" stroke="white" stroke-opacity="0.7"/>
<line x1="39.8604" y1="98" x2="39.8604" stroke="white" stroke-opacity="0.6"/>
<line x1="51.1064" y1="98" x2="51.1064" stroke="white" stroke-opacity="0.4"/>
<line x1="59.1396" y1="98" x2="59.1396" stroke="white" stroke-opacity="0.2"/>
<line x1="66.3691" y1="98" x2="66.3691" stroke="white" stroke-opacity="0.1"/>
<line x1="74.4014" y1="98" x2="74.4014" stroke="white" stroke-opacity="0.1"/>
<line y1="-0.5" x2="98" y2="-0.5" transform="matrix(0 -1 -1 0 160.049 98)" stroke="white"/>
<line y1="-0.5" x2="98" y2="-0.5" transform="matrix(0 -1 -1 0 151.213 98)" stroke="white"/>
<line y1="-0.5" x2="98" y2="-0.5" transform="matrix(0 -1 -1 0 143.983 98)" stroke="white"/>
<line y1="-0.5" x2="98" y2="-0.5" transform="matrix(0 -1 -1 0 135.95 98)" stroke="white" stroke-opacity="0.8"/>
<line y1="-0.5" x2="98" y2="-0.5" transform="matrix(0 -1 -1 0 127.918 98)" stroke="white" stroke-opacity="0.7"/>
<line y1="-0.5" x2="98" y2="-0.5" transform="matrix(0 -1 -1 0 120.688 98)" stroke="white" stroke-opacity="0.6"/>
<line y1="-0.5" x2="98" y2="-0.5" transform="matrix(0 -1 -1 0 109.442 98)" stroke="white" stroke-opacity="0.4"/>
<line y1="-0.5" x2="98" y2="-0.5" transform="matrix(0 -1 -1 0 101.409 98)" stroke="white" stroke-opacity="0.2"/>
<line y1="-0.5" x2="98" y2="-0.5" transform="matrix(0 -1 -1 0 94.1797 98)" stroke="white" stroke-opacity="0.1"/>
<line y1="-0.5" x2="98" y2="-0.5" transform="matrix(0 -1 -1 0 86.1475 98)" stroke="white" stroke-opacity="0.1"/>
</g>
<g opacity="0.24">
<line x1="168.498" y1="98" x2="168.498" stroke="white"/>
<line x1="177.334" y1="98" x2="177.334" stroke="white"/>
<line x1="184.563" y1="98" x2="184.563" stroke="white"/>
<line x1="192.597" y1="98" x2="192.597" stroke="white" stroke-opacity="0.8"/>
<line x1="200.629" y1="98" x2="200.629" stroke="white" stroke-opacity="0.7"/>
<line x1="207.858" y1="98" x2="207.858" stroke="white" stroke-opacity="0.6"/>
<line x1="219.104" y1="98" x2="219.104" stroke="white" stroke-opacity="0.4"/>
<line x1="227.138" y1="98" x2="227.138" stroke="white" stroke-opacity="0.2"/>
<line x1="234.367" y1="98" x2="234.367" stroke="white" stroke-opacity="0.1"/>
<line x1="242.399" y1="98" x2="242.399" stroke="white" stroke-opacity="0.1"/>
<line y1="-0.5" x2="98" y2="-0.5" transform="matrix(0 -1 -1 0 328.047 98)" stroke="white"/>
<line y1="-0.5" x2="98" y2="-0.5" transform="matrix(0 -1 -1 0 319.211 98)" stroke="white"/>
<line y1="-0.5" x2="98" y2="-0.5" transform="matrix(0 -1 -1 0 311.981 98)" stroke="white"/>
<line y1="-0.5" x2="98" y2="-0.5" transform="matrix(0 -1 -1 0 303.948 98)" stroke="white" stroke-opacity="0.8"/>
<line y1="-0.5" x2="98" y2="-0.5" transform="matrix(0 -1 -1 0 295.916 98)" stroke="white" stroke-opacity="0.7"/>
<line y1="-0.5" x2="98" y2="-0.5" transform="matrix(0 -1 -1 0 288.687 98)" stroke="white" stroke-opacity="0.6"/>
<line y1="-0.5" x2="98" y2="-0.5" transform="matrix(0 -1 -1 0 277.44 98)" stroke="white" stroke-opacity="0.4"/>
<line y1="-0.5" x2="98" y2="-0.5" transform="matrix(0 -1 -1 0 269.407 98)" stroke="white" stroke-opacity="0.2"/>
<line y1="-0.5" x2="98" y2="-0.5" transform="matrix(0 -1 -1 0 262.178 98)" stroke="white" stroke-opacity="0.1"/>
<line y1="-0.5" x2="98" y2="-0.5" transform="matrix(0 -1 -1 0 254.146 98)" stroke="white" stroke-opacity="0.1"/>
</g>
</svg>
