<svg width="98" height="89" viewBox="0 0 98 89" fill="none" xmlns="http://www.w3.org/2000/svg">
<path d="M81.625 45.375C81.9897 45.375 82.3394 45.2301 82.5973 44.9723C82.8551 44.7144 83 44.3647 83 44C83 43.6353 82.8551 43.2856 82.5973 43.0277C82.3394 42.7699 81.9897 42.625 81.625 42.625H73.375V31.625H81.625C81.9897 31.625 82.3394 31.4801 82.5973 31.2223C82.8551 30.9644 83 30.6147 83 30.25C83 29.8853 82.8551 29.5356 82.5973 29.2777C82.3394 29.0199 81.9897 28.875 81.625 28.875H73.375V27.5C73.3728 25.6773 72.6478 23.9299 71.3589 22.6411C70.0701 21.3522 68.3227 20.6272 66.5 20.625H65.125V12.375C65.125 12.0103 64.9801 11.6606 64.7223 11.4027C64.4644 11.1449 64.1147 11 63.75 11C63.3853 11 63.0356 11.1449 62.7777 11.4027C62.5199 11.6606 62.375 12.0103 62.375 12.375V20.625H51.375V12.375C51.375 12.0103 51.2301 11.6606 50.9723 11.4027C50.7144 11.1449 50.3647 11 50 11C49.6353 11 49.2856 11.1449 49.0277 11.4027C48.7699 11.6606 48.625 12.0103 48.625 12.375V20.625H37.625V12.375C37.625 12.0103 37.4801 11.6606 37.2223 11.4027C36.9644 11.1449 36.6147 11 36.25 11C35.8853 11 35.5356 11.1449 35.2777 11.4027C35.0199 11.6606 34.875 12.0103 34.875 12.375V20.625H33.5C31.6773 20.6272 29.9299 21.3522 28.6411 22.6411C27.3522 23.9299 26.6272 25.6773 26.625 27.5V28.875H18.375C18.0103 28.875 17.6606 29.0199 17.4027 29.2777C17.1449 29.5356 17 29.8853 17 30.25C17 30.6147 17.1449 30.9644 17.4027 31.2223C17.6606 31.4801 18.0103 31.625 18.375 31.625H26.625V42.625H18.375C18.0103 42.625 17.6606 42.7699 17.4027 43.0277C17.1449 43.2856 17 43.6353 17 44C17 44.3647 17.1449 44.7144 17.4027 44.9723C17.6606 45.2301 18.0103 45.375 18.375 45.375H26.625V56.375H18.375C18.0103 56.375 17.6606 56.5199 17.4027 56.7777C17.1449 57.0356 17 57.3853 17 57.75C17 58.1147 17.1449 58.4644 17.4027 58.7223C17.6606 58.9801 18.0103 59.125 18.375 59.125H26.625V60.5C26.6272 62.3227 27.3522 64.0701 28.6411 65.3589C29.9299 66.6478 31.6773 67.3728 33.5 67.375H34.875V75.625C34.875 75.9897 35.0199 76.3394 35.2777 76.5973C35.5356 76.8551 35.8853 77 36.25 77C36.6147 77 36.9644 76.8551 37.2223 76.5973C37.4801 76.3394 37.625 75.9897 37.625 75.625V67.375H48.625V75.625C48.625 75.9897 48.7699 76.3394 49.0277 76.5973C49.2856 76.8551 49.6353 77 50 77C50.3647 77 50.7144 76.8551 50.9723 76.5973C51.2301 76.3394 51.375 75.9897 51.375 75.625V67.375H62.375V75.625C62.375 75.9897 62.5199 76.3394 62.7777 76.5973C63.0356 76.8551 63.3853 77 63.75 77C64.1147 77 64.4644 76.8551 64.7223 76.5973C64.9801 76.3394 65.125 75.9897 65.125 75.625V67.375H66.5C68.3227 67.3728 70.0701 66.6478 71.3589 65.3589C72.6478 64.0701 73.3728 62.3227 73.375 60.5V59.125H81.625C81.9897 59.125 82.3394 58.9801 82.5973 58.7223C82.8551 58.4644 83 58.1147 83 57.75C83 57.3853 82.8551 57.0356 82.5973 56.7777C82.3394 56.5199 81.9897 56.375 81.625 56.375H73.375V45.375H81.625ZM70.625 60.5C70.625 61.594 70.1904 62.6432 69.4168 63.4168C68.6432 64.1904 67.594 64.625 66.5 64.625H33.5C32.406 64.625 31.3568 64.1904 30.5832 63.4168C29.8096 62.6432 29.375 61.594 29.375 60.5V27.5C29.375 26.406 29.8096 25.3568 30.5832 24.5832C31.3568 23.8096 32.406 23.375 33.5 23.375H66.5C67.594 23.375 68.6432 23.8096 69.4168 24.5832C70.1904 25.3568 70.625 26.406 70.625 27.5V60.5Z" fill="#FD9109"/>
</svg>
