<svg width="86" height="86" viewBox="0 0 86 86" fill="none" xmlns="http://www.w3.org/2000/svg">
<path d="M83.8103 24.2829L43.4978 8.15791C43.1778 8.03005 42.8208 8.03005 42.5008 8.15791L2.18825 24.2829C1.93846 24.3824 1.72426 24.5546 1.57336 24.7771C1.42246 24.9997 1.3418 25.2624 1.3418 25.5313C1.3418 25.8001 1.42246 26.0628 1.57336 26.2854C1.72426 26.5079 1.93846 26.6801 2.18825 26.7796L42.5008 42.9046C42.8208 43.0325 43.1778 43.0325 43.4978 42.9046L66.5216 33.6945C66.8471 33.5585 67.106 33.3 67.2425 32.9748C67.379 32.6495 67.3822 32.2837 67.2513 31.9561C67.1204 31.6286 66.866 31.3656 66.543 31.224C66.2199 31.0824 65.8541 31.0735 65.5246 31.1992L42.9993 40.209L6.30416 25.5313L42.9993 10.8535L79.6944 25.5313L76.0945 26.9704C75.9306 27.0359 75.7811 27.133 75.6547 27.2562C75.5283 27.3794 75.4274 27.5263 75.3578 27.6886C75.2882 27.8508 75.2512 28.0251 75.2489 28.2016C75.2467 28.3781 75.2792 28.5534 75.3447 28.7173C75.4102 28.8812 75.5073 29.0307 75.6305 29.1571C75.7537 29.2835 75.9006 29.3844 76.0628 29.454C76.225 29.5236 76.3994 29.5606 76.5759 29.5629C76.7524 29.5651 76.9276 29.5326 77.0916 29.4671L83.8103 26.7796C84.0601 26.6801 84.2743 26.5079 84.4252 26.2854C84.5761 26.0628 84.6568 25.8001 84.6568 25.5313C84.6568 25.2624 84.5761 24.9997 84.4252 24.7771C84.2743 24.5546 84.0601 24.3824 83.8103 24.2829Z" fill="#FD9109"/>
<path d="M65.8438 36.2812C65.4874 36.2812 65.1456 36.4228 64.8936 36.6748C64.6416 36.9268 64.5 37.2686 64.5 37.625V53.0943C58.3499 57.8686 50.7857 60.46 43 60.46C35.2143 60.46 27.6501 57.8686 21.5 53.0943V37.625C21.5 37.2686 21.3584 36.9268 21.1064 36.6748C20.8544 36.4228 20.5126 36.2812 20.1562 36.2812C19.7999 36.2812 19.4581 36.4228 19.2061 36.6748C18.9541 36.9268 18.8125 37.2686 18.8125 37.625V53.75C18.8125 53.9523 18.8582 54.152 18.9461 54.3342C19.0341 54.5164 19.162 54.6763 19.3204 54.8022C26.0314 60.202 34.3863 63.146 43 63.146C51.6137 63.146 59.9686 60.202 66.6796 54.8022C66.838 54.6763 66.9659 54.5164 67.0539 54.3342C67.1418 54.152 67.1875 53.9523 67.1875 53.75V37.625C67.1875 37.2686 67.0459 36.9268 66.7939 36.6748C66.5419 36.4228 66.2001 36.2812 65.8438 36.2812Z" fill="#FD9109"/>
<path d="M73.9059 49.9872V29.831C73.9058 29.5185 73.7969 29.2157 73.5977 28.9749C73.3986 28.7341 73.1217 28.5702 72.8148 28.5114L43.2523 22.8677C43.0776 22.8309 42.8973 22.8293 42.722 22.863C42.5467 22.8967 42.3798 22.965 42.2312 23.0639C42.0826 23.1628 41.9551 23.2903 41.8563 23.439C41.7575 23.5877 41.6894 23.7546 41.6558 23.93C41.6222 24.1053 41.6239 24.2856 41.6608 24.4602C41.6977 24.6349 41.769 24.8005 41.8706 24.9473C41.9722 25.0941 42.102 25.2192 42.2525 25.3152C42.403 25.4113 42.5711 25.4764 42.747 25.5068L71.2184 30.9423V49.9872C68.2232 51.1361 68.0041 54.9981 69.1705 57.9852L67.1965 75.0965C67.1703 75.3308 67.2061 75.5679 67.3005 75.7839C67.3948 76 67.5443 76.1874 67.734 76.3274C69.1296 77.3741 70.8271 77.9399 72.5715 77.9399C74.316 77.9399 76.0135 77.3741 77.409 76.3274C77.5987 76.1874 77.7483 76 77.8426 75.7839C77.937 75.5679 77.9728 75.3308 77.9465 75.0965L75.9538 57.9839C77.1201 54.9954 76.8998 51.1348 73.9059 49.9872ZM72.5621 52.406C74.2136 52.406 74.0403 55.0397 73.5794 56.6173C72.9062 56.7288 72.2194 56.7288 71.5463 56.6173C71.084 55.0384 70.9107 52.406 72.5621 52.406ZM69.9606 74.5778L71.7183 59.3411C72.2783 59.417 72.846 59.417 73.406 59.3411L75.1636 74.5778C74.3652 75.0117 73.4709 75.239 72.5621 75.239C71.6534 75.239 70.7591 75.0117 69.9606 74.5778Z" fill="#FD9109"/>
</svg>
