<svg width="247" height="58" viewBox="0 0 247 58" fill="none" xmlns="http://www.w3.org/2000/svg">
<path fill-rule="evenodd" clip-rule="evenodd" d="M14.5891 1.77726e-06C21.746 6.83071 28.8715 13.7016 35.9658 20.6127C43.0434 13.7537 50.1211 6.89461 57.1987 0.035541C57.2706 -0.011847 57.3424 -0.011847 57.4143 0.035541C65.5004 6.11239 70.2784 14.1561 71.7492 24.1667C72.9542 35.2322 69.8165 44.8752 62.3363 53.0956C60.5644 54.9445 58.6243 56.5794 56.5161 58C56.409 57.9419 56.3013 57.8827 56.1928 57.8223C51.2109 52.989 46.2289 48.1556 41.2471 43.3223C47.7943 40.6319 51.2672 35.7749 51.6659 28.7512C51.629 26.9328 51.2937 25.1677 50.66 23.4559C52.3357 21.8101 54.0243 20.1753 55.7257 18.5515C58.421 23.8661 58.9479 29.3865 57.3065 35.1127C56.1919 38.6751 54.3118 41.767 51.6659 44.3885C53.4483 46.0805 55.2087 47.7983 56.9472 49.5417C63.8727 42.423 66.675 33.941 65.3542 24.0956C64.3574 18.1436 61.7946 12.9785 57.6658 8.60049C50.4533 15.6286 43.208 22.6179 35.9298 29.5686C28.6994 22.5941 21.4781 15.6047 14.2658 8.60049C9.02133 14.2308 6.32679 20.9003 6.18215 28.6091C6.30811 36.6302 9.15835 43.5129 14.7328 49.2574C16.5401 47.5525 18.3365 45.8348 20.1219 44.1042C15.2252 38.9073 13.2013 32.7591 14.0502 25.6593C14.3751 23.3095 15.0816 21.0824 16.1699 18.9779C17.8454 20.5524 19.51 22.1399 21.1638 23.7402C21.2117 23.8824 21.2117 24.0245 21.1638 24.1667C19.4628 30.4081 20.9597 35.7746 25.6547 40.2659C27.069 41.4875 28.6498 42.4589 30.3971 43.1801C25.3094 48.047 20.2437 52.9395 15.1999 57.8578C6.04555 51.2184 0.991772 42.2625 0.0386027 30.9902C-0.443626 19.428 3.59219 9.74947 12.1461 1.95466C12.9531 1.28581 13.7675 0.634306 14.5891 1.77726e-06Z" fill="url(#paint0_linear_227_3142)"/>
<path d="M95.0411 49V11.5302H103.226L114.556 38.5903L125.963 11.5302H134.045V49H127.651V30.4825L127.856 19.8682L126.91 22.6816L117.318 46.4423H111.385L101.998 22.5538L101.052 19.7403L101.282 30.5848V49H95.0411ZM148.931 49.5371C146.322 49.5371 144.208 48.821 142.588 47.3887C140.985 45.9393 140.184 43.8591 140.184 41.148C140.184 38.2322 141.139 36.0753 143.048 34.6771C144.958 33.2618 147.84 32.3667 151.693 31.9915C152.222 31.9233 152.793 31.8551 153.407 31.7869C154.021 31.7187 154.711 31.6505 155.479 31.5823C156.246 31.5141 156.851 31.4544 157.295 31.4033V29.9198C157.295 28.2147 156.902 26.9785 156.118 26.2112C155.334 25.4269 154.14 25.0347 152.537 25.0347C150.253 25.0347 147.431 25.6741 144.072 26.9529C144.054 26.9018 143.773 26.126 143.227 24.6255C142.682 23.125 142.401 22.3577 142.383 22.3236C145.691 20.9083 149.272 20.2007 153.126 20.2007C156.911 20.2007 159.665 21.0277 161.387 22.6816C163.109 24.3185 163.97 26.9785 163.97 30.6616V49H159.008C158.991 48.9318 158.804 48.3606 158.446 47.2864C158.088 46.2121 157.908 45.6409 157.908 45.5727C156.51 46.9368 155.138 47.9428 153.791 48.5908C152.461 49.2217 150.841 49.5371 148.931 49.5371ZM150.747 44.7799C152.299 44.7799 153.646 44.4133 154.788 43.6801C155.948 42.9298 156.775 42.0261 157.269 40.9689V35.5467C157.218 35.5467 156.766 35.5808 155.914 35.649C155.078 35.7172 154.626 35.7513 154.558 35.7513C151.847 35.99 149.86 36.5016 148.599 37.2859C147.337 38.0703 146.706 39.332 146.706 41.0712C146.706 42.2648 147.055 43.1856 147.755 43.8335C148.454 44.4644 149.451 44.7799 150.747 44.7799ZM168.983 49V44.9333L182.897 25.5462H169.648V20.8913H190.314V25.4695L177.142 44.1149H190.774V49H168.983ZM193.997 49V44.9333L207.911 25.5462H194.662V20.8913H215.328V25.4695L202.156 44.1149H215.788V49H193.997ZM233.743 49.5371C229.225 49.5371 225.704 48.2412 223.18 45.6495C220.674 43.0406 219.42 39.4429 219.42 34.8561C219.42 30.3887 220.605 26.8336 222.975 24.1907C225.346 21.5477 228.577 20.2178 232.669 20.2007C236.54 20.2007 239.541 21.4113 241.672 23.8326C243.82 26.2538 244.895 29.468 244.895 33.475C244.895 33.7649 244.886 34.2338 244.869 34.8817C244.869 35.5296 244.869 36.0071 244.869 36.314H226.173C226.241 38.9399 226.957 40.9775 228.321 42.4268C229.702 43.8591 231.595 44.5752 233.999 44.5752C237.068 44.5752 240.018 43.7738 242.848 42.171L243.795 46.9283C240.981 48.6675 237.631 49.5371 233.743 49.5371ZM226.3 32.0938H238.577C238.577 29.809 238.057 28.0527 237.017 26.8251C235.977 25.5974 234.536 24.9835 232.695 24.9835C230.972 24.9835 229.515 25.5803 228.321 26.7739C227.144 27.9675 226.471 29.7408 226.3 32.0938Z" fill="url(#paint1_linear_227_3142)"/>
<defs>
<linearGradient id="paint0_linear_227_3142" x1="-2.50962e-09" y1="29" x2="74.3033" y2="30.6956" gradientUnits="userSpaceOnUse">
<stop stop-color="white"/>
<stop offset="1" stop-color="#FD9109"/>
</linearGradient>
<linearGradient id="paint1_linear_227_3142" x1="91" y1="28" x2="251.653" y2="36.2269" gradientUnits="userSpaceOnUse">
<stop stop-color="white"/>
<stop offset="1" stop-color="#FD9109"/>
</linearGradient>
</defs>
</svg>
