<?xml version="1.0" encoding="UTF-8" standalone="no"?>
<!DOCTYPE svg PUBLIC "-//W3C//DTD SVG 1.1//EN" "http://www.w3.org/Graphics/SVG/1.1/DTD/svg11.dtd">
<svg xmlns="http://www.w3.org/2000/svg" version="1.1" viewBox="0.00 0.00 548.00 548.00">
<path fill="#323232" d="
  M 264.77 0.00
  L 282.61 0.00
  Q 348.68 2.45 404.34 32.88
  Q 450.99 58.38 483.82 97.70
  Q 543.74 169.48 548.00 264.63
  L 548.00 283.36
  Q 542.63 391.13 468.77 466.64
  Q 461.74 473.82 454.22 480.34
  Q 381.35 543.49 283.17 548.00
  L 264.75 548.00
  C 186.57 544.92 113.44 509.44 63.96 450.04
  Q 4.17 378.28 0.00 283.19
  L 0.00 264.69
  Q 5.33 156.90 79.23 81.36
  Q 86.25 74.18 93.78 67.66
  Q 166.62 4.55 264.77 0.00
  Z
  M 347.13 155.85
  C 273.99 243.53 202.57 329.27 130.08 416.48
  A 1.00 0.99 -62.5 0 0 130.58 418.07
  Q 130.78 418.13 131.28 417.97
  Q 131.61 417.87 131.89 417.64
  Q 260.58 310.42 389.38 203.26
  C 395.11 198.49 399.44 194.28 402.06 187.25
  C 411.70 161.35 386.75 136.29 360.69 145.95
  Q 353.00 148.81 347.13 155.85
  Z
  M 249.26 150.17
  Q 248.75 149.94 248.17 149.79
  Q 233.53 146.03 224.89 157.55
  Q 186.41 208.90 143.01 266.71
  Q 142.82 266.97 142.93 267.30
  Q 143.29 268.39 144.21 267.70
  Q 197.60 227.67 254.39 185.09
  C 262.89 178.72 264.35 165.98 258.36 157.52
  Q 255.02 152.80 249.26 150.17
  Z
  M 381.68 286.19
  C 374.81 285.04 367.01 288.17 362.93 293.61
  Q 320.12 350.60 280.42 403.59
  Q 280.12 403.99 280.09 404.48
  A 0.68 0.67 -16.7 0 0 281.17 405.06
  Q 334.80 364.85 388.54 324.53
  Q 392.94 321.23 394.45 319.45
  C 400.38 312.49 400.70 302.59 395.76 295.00
  Q 391.04 287.74 381.68 286.19
  Z"
/>
</svg>
