<svg width="24" height="18" viewBox="0 0 24 18" fill="none" xmlns="http://www.w3.org/2000/svg">
<path d="M5 0H19C19.5304 0 20.0391 0.210714 20.4142 0.585786C20.7893 0.960859 21 1.46957 21 2V16C21 16.5304 20.7893 17.0391 20.4142 17.4142C20.0391 17.7893 19.5304 18 19 18H5C4.46957 18 3.96086 17.7893 3.58579 17.4142C3.21071 17.0391 3 16.5304 3 16V2C3 1.46957 3.21071 0.960859 3.58579 0.585786C3.96086 0.210714 4.46957 0 5 0ZM12 14L12.72 13.34C15.3 11 17 9.46 17 7.57C17 6.03 15.79 4.82 14.25 4.82C13.38 4.82 12.55 5.23 12 5.87C11.7213 5.54487 11.3765 5.283 10.9884 5.10192C10.6004 4.92084 10.1782 4.82473 9.75 4.82C8.21 4.82 7 6.03 7 7.57C7 9.46 8.7 11 11.28 13.34L12 14Z" fill="#D72E2E"/>
</svg>
