<svg width="45" height="37" viewBox="0 0 45 37" fill="none" xmlns="http://www.w3.org/2000/svg">
<path fill-rule="evenodd" clip-rule="evenodd" d="M9.11819 1.11078e-06C13.5913 4.26919 18.0447 8.56353 22.4786 12.883C26.9021 8.59605 31.3257 4.30913 35.7492 0.0222131C35.7941 -0.00740437 35.839 -0.00740437 35.8839 0.0222131C40.9378 3.82024 43.924 8.84758 44.8433 15.1042C45.5964 22.0201 43.6353 28.047 38.9602 33.1847C37.8527 34.3403 36.6402 35.3621 35.3226 36.25C35.2557 36.2137 35.1883 36.1767 35.1205 36.1389C32.0068 33.1181 28.8931 30.0973 25.7794 27.0764C29.8714 25.3949 32.042 22.3593 32.2912 17.9695C32.2681 16.833 32.0585 15.7298 31.6625 14.6599C32.7098 13.6313 33.7652 12.6096 34.8286 11.5947C36.5131 14.9163 36.8424 18.3665 35.8166 21.9455C35.1199 24.172 33.9449 26.1044 32.2912 27.7428C33.4052 28.8003 34.5055 29.8739 35.592 30.9635C39.9204 26.5144 41.6719 21.2131 40.8464 15.0597C40.2234 11.3397 38.6216 8.11156 36.0411 5.37531C31.5333 9.76787 27.005 14.1362 22.4562 18.4804C17.9371 14.1213 13.4238 9.75294 8.9161 5.37531C5.63833 8.89422 3.95424 13.0627 3.86384 17.8807C3.94257 22.8939 5.72397 27.1956 9.20801 30.7858C10.3376 29.7203 11.4603 28.6467 12.5762 27.5651C9.51577 24.3171 8.25082 20.4744 8.78137 16.0371C8.98441 14.5685 9.426 13.1765 10.1062 11.8612C11.1534 12.8453 12.1938 13.8374 13.2274 14.8376C13.2573 14.9265 13.2573 15.0153 13.2274 15.1042C12.1642 19.0051 13.0998 22.3591 16.0342 25.1662C16.9181 25.9297 17.9061 26.5368 18.9982 26.9876C15.8184 30.0293 12.6523 33.0872 9.49992 36.1612C3.77847 32.0115 0.619858 26.4141 0.0241267 19.3689C-0.277266 12.1425 2.24512 6.09342 7.59129 1.22166C8.0957 0.803632 8.60466 0.396441 9.11819 1.11078e-06Z" fill="white"/>
</svg>
