<svg width="110" height="22" viewBox="0 0 110 22" fill="none" xmlns="http://www.w3.org/2000/svg">
<path fill-rule="evenodd" clip-rule="evenodd" d="M5.34515 6.5115e-07C7.96729 2.50263 10.5779 5.02 13.1771 7.55208C15.7702 5.03906 18.3633 2.52604 20.9564 0.0130215C20.9828 -0.00434049 21.0091 -0.00434049 21.0354 0.0130215C23.998 2.23945 25.7485 5.18651 26.2874 8.85417C26.7289 12.9083 25.5793 16.4413 22.8387 19.4531C22.1895 20.1305 21.4787 20.7295 20.7063 21.25C20.6671 21.2287 20.6276 21.207 20.5879 21.1849C18.7626 19.4141 16.9373 17.6432 15.1121 15.8724C17.5108 14.8867 18.7833 13.1072 18.9293 10.5339C18.9158 9.86763 18.7929 9.22091 18.5608 8.59375C19.1747 7.99078 19.7934 7.39182 20.4167 6.79688C21.4042 8.74404 21.5973 10.7666 20.9959 12.8646C20.5876 14.1698 19.8987 15.3026 18.9293 16.263C19.5823 16.8829 20.2273 17.5123 20.8643 18.151C23.4016 15.5429 24.4283 12.4353 23.9444 8.82813C23.5792 6.64742 22.6403 4.75505 21.1276 3.15104C18.485 5.72599 15.8305 8.28675 13.164 10.8333C10.5149 8.278 7.86912 5.71724 5.22668 3.15104C3.30523 5.21385 2.31801 7.65742 2.26501 10.4818C2.31116 13.4205 3.35543 15.9422 5.3978 18.0469C6.05995 17.4223 6.7181 16.7929 7.37224 16.1589C5.57821 14.2548 4.83669 12.0022 5.1477 9.40104C5.26672 8.54013 5.52558 7.72417 5.92432 6.95313C6.53819 7.52997 7.14808 8.11159 7.75397 8.69792C7.77153 8.75 7.77153 8.80208 7.75397 8.85417C7.13076 11.1409 7.6792 13.1071 9.39934 14.7526C9.91752 15.2002 10.4967 15.5561 11.1369 15.8203C9.27285 17.6034 7.41687 19.3959 5.56892 21.1979C2.21497 18.7654 0.363365 15.4841 0.0141432 11.3542C-0.162535 7.11802 1.3161 3.57201 4.45006 0.716146C4.74576 0.471094 5.04411 0.232396 5.34515 6.5115e-07Z" fill="white"/>
<path d="M39.6389 18V4H43.3589L47.1989 11.56L51.0389 4H54.7589V18H52.0189V7.7L47.1589 17L42.3189 7.66V18H39.6389ZM55.9356 18L61.6956 4H65.0356L70.7356 18H67.5956L66.1756 14.32H60.3956L58.9556 18H55.9356ZM61.2956 12H65.2956L63.2956 6.84L61.2956 12ZM71.377 18V16.02L79.097 6.52H71.437V4H82.877V5.98L75.157 15.48H82.957V18H71.377ZM83.9161 18V16.02L91.6361 6.52H83.9761V4H95.4161V5.98L87.6961 15.48H95.4961V18H83.9161ZM97.0998 18V4H107.86V6.52H99.9998V9.72H105.18V12.16H99.9998V15.48H107.94V18H97.0998Z" fill="url(#paint0_linear_341_8374)"/>
<defs>
<linearGradient id="paint0_linear_341_8374" x1="38.3789" y1="10.5" x2="111.406" y2="15.0388" gradientUnits="userSpaceOnUse">
<stop stop-color="white"/>
<stop offset="1" stop-color="#FD9109"/>
</linearGradient>
</defs>
</svg>
