<svg width="1288" height="108" viewBox="0 0 1288 108" fill="none" xmlns="http://www.w3.org/2000/svg">
<rect x="0.5" y="53.5" width="164" height="51" rx="9.5" fill="#FD9109" fill-opacity="0.1"/>
<rect x="0.5" y="53.5" width="164" height="51" rx="9.5" stroke="#FD9109"/>
<path d="M24.7109 85.1406C26.5156 86.0312 28.4492 86.4766 30.5117 86.4766C33.0508 86.4766 34.3203 85.3203 34.3203 83.0078C34.3203 82.2578 34.1172 81.6523 33.7109 81.1914C33.3125 80.7227 32.582 80.3555 31.5195 80.0898L28.0742 79.2227C25.4414 78.5586 24.125 77.1523 24.125 75.0039C24.125 73.3555 24.6914 72.1328 25.8242 71.3359C26.957 70.5312 28.5234 70.1289 30.5234 70.1289C31.5703 70.1289 32.5508 70.2422 33.4648 70.4688C34.3789 70.6953 35.1445 71 35.7617 71.3828L35.1758 73.0352C34.6523 72.7461 33.957 72.4883 33.0898 72.2617C32.2305 72.0352 31.3594 71.9219 30.4766 71.9219C27.6484 71.9219 26.2344 72.9023 26.2344 74.8633C26.2344 75.5273 26.4492 76.0625 26.8789 76.4688C27.3164 76.8672 27.9688 77.1719 28.8359 77.3828L32.1289 78.1797C33.5352 78.5156 34.6016 79.0547 35.3281 79.7969C36.0547 80.5312 36.418 81.5781 36.418 82.9375C36.418 84.7031 35.875 86.0352 34.7891 86.9336C33.7109 87.8242 32.2422 88.2695 30.3828 88.2695C28.9922 88.2695 27.7539 88.1289 26.668 87.8477C25.5898 87.5586 24.7344 87.2188 24.1016 86.8281L24.7109 85.1406ZM44.5039 88.2695C42.6133 88.2695 41.1328 87.6562 40.0625 86.4297C39 85.2031 38.4688 83.5977 38.4688 81.6133C38.4766 79.6133 39.0195 77.9922 40.0977 76.75C41.1836 75.5 42.668 74.875 44.5508 74.875C45.2148 74.875 45.8555 74.957 46.4727 75.1211C47.0977 75.2852 47.5898 75.5 47.9492 75.7656L47.4102 77.2891C46.4961 76.7969 45.5312 76.5508 44.5156 76.5508C43.2734 76.5508 42.2891 77.0039 41.5625 77.9102C40.8438 78.8164 40.4844 80.0547 40.4844 81.625C40.4844 83.1562 40.8398 84.3711 41.5508 85.2695C42.2695 86.1602 43.2617 86.6055 44.5273 86.6055C45.5352 86.6055 46.5664 86.332 47.6211 85.7852L47.8672 87.3438C47.0156 87.9609 45.8945 88.2695 44.5039 88.2695ZM54.125 86.6875C55.0547 86.6875 55.8711 86.4336 56.5742 85.9258C57.2852 85.4102 57.7422 84.7188 57.9453 83.8516V81.6836C57.9062 81.6836 57.668 81.7031 57.2305 81.7422C56.8008 81.7812 56.5195 81.8047 56.3867 81.8125C54.6914 81.9609 53.5078 82.2383 52.8359 82.6445C52.1719 83.0508 51.8398 83.7031 51.8398 84.6016C51.8398 85.2891 52.043 85.8086 52.4492 86.1602C52.8555 86.5117 53.4141 86.6875 54.125 86.6875ZM58.3789 88C58.2617 87.5 58.1484 86.9609 58.0391 86.3828C57.3281 87.0938 56.6602 87.5859 56.0352 87.8594C55.4102 88.1328 54.6758 88.2695 53.832 88.2695C52.6289 88.2695 51.6602 87.957 50.9258 87.332C50.1992 86.6992 49.8359 85.793 49.8359 84.6133C49.8359 83.3008 50.332 82.3281 51.3242 81.6953C52.3242 81.0625 53.7617 80.668 55.6367 80.5117C55.8945 80.4883 56.2812 80.457 56.7969 80.418C57.3203 80.3711 57.7109 80.3359 57.9688 80.3125V79.1758C57.9688 78.2695 57.7578 77.5977 57.3359 77.1602C56.9141 76.7227 56.25 76.5039 55.3438 76.5039C54.0781 76.5039 52.8008 76.8164 51.5117 77.4414C51.4727 77.3477 51.3711 77.0781 51.207 76.6328C51.043 76.1797 50.957 75.9453 50.9492 75.9297C51.5195 75.6094 52.1953 75.3555 52.9766 75.168C53.7656 74.9727 54.5664 74.875 55.3789 74.875C56.9805 74.875 58.1328 75.2266 58.8359 75.9297C59.5469 76.625 59.9023 77.8125 59.9023 79.4922V88H58.3789ZM66.7344 88.2344C65.4844 88.2344 64.5977 87.8984 64.0742 87.2266C63.5586 86.5547 63.3008 85.3867 63.3008 83.7227V70.1523L65.2461 70.0352V82.9492C65.2461 83.4805 65.25 83.9062 65.2578 84.2266C65.2734 84.5469 65.3047 84.8633 65.3516 85.1758C65.3984 85.4805 65.4609 85.7109 65.5391 85.8672C65.6172 86.0234 65.7305 86.168 65.8789 86.3008C66.0273 86.4258 66.2031 86.5117 66.4062 86.5586C66.6172 86.5977 66.875 86.6172 67.1797 86.6172C67.4297 86.6172 67.9219 86.5703 68.6562 86.4766L68.7617 88.0352C67.957 88.168 67.2812 88.2344 66.7344 88.2344ZM73.6719 86.6875C74.6016 86.6875 75.418 86.4336 76.1211 85.9258C76.832 85.4102 77.2891 84.7188 77.4922 83.8516V81.6836C77.4531 81.6836 77.2148 81.7031 76.7773 81.7422C76.3477 81.7812 76.0664 81.8047 75.9336 81.8125C74.2383 81.9609 73.0547 82.2383 72.3828 82.6445C71.7188 83.0508 71.3867 83.7031 71.3867 84.6016C71.3867 85.2891 71.5898 85.8086 71.9961 86.1602C72.4023 86.5117 72.9609 86.6875 73.6719 86.6875ZM77.9258 88C77.8086 87.5 77.6953 86.9609 77.5859 86.3828C76.875 87.0938 76.207 87.5859 75.582 87.8594C74.957 88.1328 74.2227 88.2695 73.3789 88.2695C72.1758 88.2695 71.207 87.957 70.4727 87.332C69.7461 86.6992 69.3828 85.793 69.3828 84.6133C69.3828 83.3008 69.8789 82.3281 70.8711 81.6953C71.8711 81.0625 73.3086 80.668 75.1836 80.5117C75.4414 80.4883 75.8281 80.457 76.3438 80.418C76.8672 80.3711 77.2578 80.3359 77.5156 80.3125V79.1758C77.5156 78.2695 77.3047 77.5977 76.8828 77.1602C76.4609 76.7227 75.7969 76.5039 74.8906 76.5039C73.625 76.5039 72.3477 76.8164 71.0586 77.4414C71.0195 77.3477 70.918 77.0781 70.7539 76.6328C70.5898 76.1797 70.5039 75.9453 70.4961 75.9297C71.0664 75.6094 71.7422 75.3555 72.5234 75.168C73.3125 74.9727 74.1133 74.875 74.9258 74.875C76.5273 74.875 77.6797 75.2266 78.3828 75.9297C79.0938 76.625 79.4492 77.8125 79.4492 79.4922V88H77.9258ZM88.6719 76.5039C87.4297 76.5039 86.4766 76.9336 85.8125 77.793C85.1562 78.6445 84.8281 79.8984 84.8281 81.5547C84.8281 84.9453 86.1055 86.6406 88.6602 86.6406C89.293 86.6406 89.8477 86.5117 90.3242 86.2539C90.8086 85.9883 91.1875 85.6211 91.4609 85.1523C91.7422 84.6758 91.9492 84.1406 92.082 83.5469C92.2227 82.9531 92.293 82.293 92.293 81.5664C92.293 80.582 92.1758 79.7227 91.9414 78.9883C91.7148 78.2539 91.3242 77.6562 90.7695 77.1953C90.2148 76.7344 89.5156 76.5039 88.6719 76.5039ZM88.8711 74.875C90.0117 74.875 90.9961 75.1641 91.8242 75.7422C92.6523 76.3203 93.2734 77.1055 93.6875 78.0977C94.1016 79.0898 94.3086 80.2266 94.3086 81.5078C94.3086 82.8359 94.1016 84.0039 93.6875 85.0117C93.2812 86.0195 92.6602 86.8164 91.8242 87.4023C90.9961 87.9805 90.0039 88.2695 88.8477 88.2695C87.9961 88.2695 87.2188 88.0859 86.5156 87.7188C85.8125 87.3516 85.2266 86.8516 84.7578 86.2188L84.5586 88H82.8828V70.1523L84.8398 70.0352V74.2891C84.8398 75.3359 84.8242 76.2344 84.793 76.9844C85.2461 76.3359 85.832 75.8242 86.5508 75.4492C87.2773 75.0664 88.0508 74.875 88.8711 74.875ZM99.3828 75.1445V88H97.4141V75.1445H99.3828ZM99.3828 70.4688V72.7891H97.4141V70.4688H99.3828ZM106.531 88.2344C105.281 88.2344 104.395 87.8984 103.871 87.2266C103.355 86.5547 103.098 85.3867 103.098 83.7227V70.1523L105.043 70.0352V82.9492C105.043 83.4805 105.047 83.9062 105.055 84.2266C105.07 84.5469 105.102 84.8633 105.148 85.1758C105.195 85.4805 105.258 85.7109 105.336 85.8672C105.414 86.0234 105.527 86.168 105.676 86.3008C105.824 86.4258 106 86.5117 106.203 86.5586C106.414 86.5977 106.672 86.6172 106.977 86.6172C107.227 86.6172 107.719 86.5703 108.453 86.4766L108.559 88.0352C107.754 88.168 107.078 88.2344 106.531 88.2344ZM113.211 88.2344C111.961 88.2344 111.074 87.8984 110.551 87.2266C110.035 86.5547 109.777 85.3867 109.777 83.7227V70.1523L111.723 70.0352V82.9492C111.723 83.4805 111.727 83.9062 111.734 84.2266C111.75 84.5469 111.781 84.8633 111.828 85.1758C111.875 85.4805 111.938 85.7109 112.016 85.8672C112.094 86.0234 112.207 86.168 112.355 86.3008C112.504 86.4258 112.68 86.5117 112.883 86.5586C113.094 86.5977 113.352 86.6172 113.656 86.6172C113.906 86.6172 114.398 86.5703 115.133 86.4766L115.238 88.0352C114.434 88.168 113.758 88.2344 113.211 88.2344ZM118.742 75.1445V88H116.773V75.1445H118.742ZM118.742 70.4688V72.7891H116.773V70.4688H118.742ZM126.535 88.2344C125.27 88.2344 124.371 87.9258 123.84 87.3086C123.309 86.6914 123.027 85.6953 122.996 84.3203V76.5977H121.086L121.168 75.3086L122.984 75.1445L123.652 72.2031L124.941 72.1562V75.1445H128.516V76.5977H124.941V83.9688C124.941 84.9453 125.09 85.6328 125.387 86.0312C125.684 86.4297 126.191 86.6289 126.91 86.6289C127.168 86.6289 127.727 86.5664 128.586 86.4414L128.668 87.9883C127.738 88.1523 127.027 88.2344 126.535 88.2344ZM129.113 75.1445H131.188L135.242 85.8438L138.852 75.1445H140.926C137.457 84.6914 135.664 89.6133 135.547 89.9102C135.008 91.2617 134.355 92.25 133.59 92.875C132.824 93.5078 131.816 93.8242 130.566 93.8242C130.191 93.8242 129.797 93.793 129.383 93.7305L129.266 92.0664C129.703 92.0977 130.031 92.1133 130.25 92.1133C131.133 92.1133 131.801 91.9492 132.254 91.6211C132.715 91.3008 133.125 90.6953 133.484 89.8047C133.805 88.9844 134.043 88.3516 134.199 87.9062L129.113 75.1445Z" fill="#FD9109"/>
<rect x="165.5" y="53.5" width="131" height="51" rx="9.5" fill="#FD9109" fill-opacity="0.1"/>
<rect x="165.5" y="53.5" width="131" height="51" rx="9.5" stroke="#FD9109"/>
<path d="M189.211 85.1406C191.016 86.0312 192.949 86.4766 195.012 86.4766C197.551 86.4766 198.82 85.3203 198.82 83.0078C198.82 82.2578 198.617 81.6523 198.211 81.1914C197.812 80.7227 197.082 80.3555 196.02 80.0898L192.574 79.2227C189.941 78.5586 188.625 77.1523 188.625 75.0039C188.625 73.3555 189.191 72.1328 190.324 71.3359C191.457 70.5312 193.023 70.1289 195.023 70.1289C196.07 70.1289 197.051 70.2422 197.965 70.4688C198.879 70.6953 199.645 71 200.262 71.3828L199.676 73.0352C199.152 72.7461 198.457 72.4883 197.59 72.2617C196.73 72.0352 195.859 71.9219 194.977 71.9219C192.148 71.9219 190.734 72.9023 190.734 74.8633C190.734 75.5273 190.949 76.0625 191.379 76.4688C191.816 76.8672 192.469 77.1719 193.336 77.3828L196.629 78.1797C198.035 78.5156 199.102 79.0547 199.828 79.7969C200.555 80.5312 200.918 81.5781 200.918 82.9375C200.918 84.7031 200.375 86.0352 199.289 86.9336C198.211 87.8242 196.742 88.2695 194.883 88.2695C193.492 88.2695 192.254 88.1289 191.168 87.8477C190.09 87.5586 189.234 87.2188 188.602 86.8281L189.211 85.1406ZM210.973 77.5234C210.402 76.8359 209.617 76.4922 208.617 76.4922C207.617 76.4922 206.801 76.8477 206.168 77.5586C205.535 78.2617 205.164 79.2266 205.055 80.4531H211.84C211.84 79.1797 211.551 78.2031 210.973 77.5234ZM209.004 88.2695C207.137 88.2695 205.664 87.6758 204.586 86.4883C203.516 85.3008 202.98 83.6758 202.98 81.6133C202.98 79.6211 203.5 78.0078 204.539 76.7734C205.578 75.5312 206.945 74.8984 208.641 74.875C210.234 74.875 211.496 75.4219 212.426 76.5156C213.363 77.6016 213.832 79.0547 213.832 80.875C213.832 80.9688 213.828 81.1406 213.82 81.3906C213.82 81.6406 213.82 81.8203 213.82 81.9297H204.996C205.02 83.3906 205.395 84.5312 206.121 85.3516C206.855 86.1641 207.84 86.5703 209.074 86.5703C210.434 86.5703 211.797 86.2109 213.164 85.4922L213.469 87.0742C212.164 87.8711 210.676 88.2695 209.004 88.2695ZM221.988 88.2695C220.098 88.2695 218.617 87.6562 217.547 86.4297C216.484 85.2031 215.953 83.5977 215.953 81.6133C215.961 79.6133 216.504 77.9922 217.582 76.75C218.668 75.5 220.152 74.875 222.035 74.875C222.699 74.875 223.34 74.957 223.957 75.1211C224.582 75.2852 225.074 75.5 225.434 75.7656L224.895 77.2891C223.98 76.7969 223.016 76.5508 222 76.5508C220.758 76.5508 219.773 77.0039 219.047 77.9102C218.328 78.8164 217.969 80.0547 217.969 81.625C217.969 83.1562 218.324 84.3711 219.035 85.2695C219.754 86.1602 220.746 86.6055 222.012 86.6055C223.02 86.6055 224.051 86.332 225.105 85.7852L225.352 87.3438C224.5 87.9609 223.379 88.2695 221.988 88.2695ZM227.449 83.7109V75.1445H229.418V83.7344C229.418 84.2969 229.496 84.7734 229.652 85.1641C229.816 85.5547 230.047 85.8594 230.344 86.0781C230.648 86.2891 230.988 86.4414 231.363 86.5352C231.746 86.6289 232.184 86.6758 232.676 86.6758C233.691 86.6758 234.48 86.4531 235.043 86.0078C235.613 85.5625 235.898 84.8047 235.898 83.7344V75.1445H237.867V83.7109C237.867 84.3672 237.773 84.957 237.586 85.4805C237.398 86.0039 237.145 86.4414 236.824 86.793C236.512 87.1367 236.133 87.4219 235.688 87.6484C235.242 87.875 234.77 88.0391 234.27 88.1406C233.777 88.2422 233.246 88.293 232.676 88.293C232.113 88.293 231.582 88.2422 231.082 88.1406C230.582 88.0391 230.105 87.875 229.652 87.6484C229.207 87.4141 228.82 87.125 228.492 86.7812C228.172 86.4297 227.918 85.9922 227.73 85.4688C227.543 84.9453 227.449 84.3594 227.449 83.7109ZM246.551 75.0273C246.902 75.0273 247.223 75.0508 247.512 75.0977L247.441 76.9023C247.082 76.8398 246.77 76.8086 246.504 76.8086C245.41 76.8086 244.52 77.1914 243.832 77.957C243.152 78.7148 242.812 79.6562 242.812 80.7812V88H240.855C240.848 80.1094 240.844 75.8242 240.844 75.1445H242.473L242.66 77.4531C243.105 76.7266 243.672 76.1406 244.359 75.6953C245.047 75.25 245.777 75.0273 246.551 75.0273ZM251.836 75.1445V88H249.867V75.1445H251.836ZM251.836 70.4688V72.7891H249.867V70.4688H251.836ZM259.629 88.2344C258.363 88.2344 257.465 87.9258 256.934 87.3086C256.402 86.6914 256.121 85.6953 256.09 84.3203V76.5977H254.18L254.262 75.3086L256.078 75.1445L256.746 72.2031L258.035 72.1562V75.1445H261.609V76.5977H258.035V83.9688C258.035 84.9453 258.184 85.6328 258.48 86.0312C258.777 86.4297 259.285 86.6289 260.004 86.6289C260.262 86.6289 260.82 86.5664 261.68 86.4414L261.762 87.9883C260.832 88.1523 260.121 88.2344 259.629 88.2344ZM262.207 75.1445H264.281L268.336 85.8438L271.945 75.1445H274.02C270.551 84.6914 268.758 89.6133 268.641 89.9102C268.102 91.2617 267.449 92.25 266.684 92.875C265.918 93.5078 264.91 93.8242 263.66 93.8242C263.285 93.8242 262.891 93.793 262.477 93.7305L262.359 92.0664C262.797 92.0977 263.125 92.1133 263.344 92.1133C264.227 92.1133 264.895 91.9492 265.348 91.6211C265.809 91.3008 266.219 90.6953 266.578 89.8047C266.898 88.9844 267.137 88.3516 267.293 87.9062L262.207 75.1445Z" fill="#FD9109"/>
<rect x="297.5" y="53.5" width="225" height="51" rx="9.5" fill="#FD9109" fill-opacity="0.1"/>
<rect x="297.5" y="53.5" width="225" height="51" rx="9.5" stroke="#FD9109"/>
<path d="M335.621 79.375C335.621 76.9531 334.996 75.1914 333.746 74.0898C332.496 72.9883 330.676 72.4375 328.285 72.4375H325.566V86.2305H328.625C330.906 86.2305 332.641 85.6562 333.828 84.5078C335.023 83.3516 335.621 81.6406 335.621 79.375ZM337.789 79.3164C337.789 82.1367 336.988 84.2891 335.387 85.7734C333.785 87.2578 331.551 88 328.684 88H323.539V70.668H328.344C329.789 70.668 331.082 70.8398 332.223 71.1836C333.363 71.5195 334.352 72.0352 335.188 72.7305C336.031 73.418 336.676 74.3203 337.121 75.4375C337.566 76.5469 337.789 77.8398 337.789 79.3164ZM348.184 77.5234C347.613 76.8359 346.828 76.4922 345.828 76.4922C344.828 76.4922 344.012 76.8477 343.379 77.5586C342.746 78.2617 342.375 79.2266 342.266 80.4531H349.051C349.051 79.1797 348.762 78.2031 348.184 77.5234ZM346.215 88.2695C344.348 88.2695 342.875 87.6758 341.797 86.4883C340.727 85.3008 340.191 83.6758 340.191 81.6133C340.191 79.6211 340.711 78.0078 341.75 76.7734C342.789 75.5312 344.156 74.8984 345.852 74.875C347.445 74.875 348.707 75.4219 349.637 76.5156C350.574 77.6016 351.043 79.0547 351.043 80.875C351.043 80.9688 351.039 81.1406 351.031 81.3906C351.031 81.6406 351.031 81.8203 351.031 81.9297H342.207C342.23 83.3906 342.605 84.5312 343.332 85.3516C344.066 86.1641 345.051 86.5703 346.285 86.5703C347.645 86.5703 349.008 86.2109 350.375 85.4922L350.68 87.0742C349.375 87.8711 347.887 88.2695 346.215 88.2695ZM359.199 88.2695C357.309 88.2695 355.828 87.6562 354.758 86.4297C353.695 85.2031 353.164 83.5977 353.164 81.6133C353.172 79.6133 353.715 77.9922 354.793 76.75C355.879 75.5 357.363 74.875 359.246 74.875C359.91 74.875 360.551 74.957 361.168 75.1211C361.793 75.2852 362.285 75.5 362.645 75.7656L362.105 77.2891C361.191 76.7969 360.227 76.5508 359.211 76.5508C357.969 76.5508 356.984 77.0039 356.258 77.9102C355.539 78.8164 355.18 80.0547 355.18 81.625C355.18 83.1562 355.535 84.3711 356.246 85.2695C356.965 86.1602 357.957 86.6055 359.223 86.6055C360.23 86.6055 361.262 86.332 362.316 85.7852L362.562 87.3438C361.711 87.9609 360.59 88.2695 359.199 88.2695ZM372.512 77.5234C371.941 76.8359 371.156 76.4922 370.156 76.4922C369.156 76.4922 368.34 76.8477 367.707 77.5586C367.074 78.2617 366.703 79.2266 366.594 80.4531H373.379C373.379 79.1797 373.09 78.2031 372.512 77.5234ZM370.543 88.2695C368.676 88.2695 367.203 87.6758 366.125 86.4883C365.055 85.3008 364.52 83.6758 364.52 81.6133C364.52 79.6211 365.039 78.0078 366.078 76.7734C367.117 75.5312 368.484 74.8984 370.18 74.875C371.773 74.875 373.035 75.4219 373.965 76.5156C374.902 77.6016 375.371 79.0547 375.371 80.875C375.371 80.9688 375.367 81.1406 375.359 81.3906C375.359 81.6406 375.359 81.8203 375.359 81.9297H366.535C366.559 83.3906 366.934 84.5312 367.66 85.3516C368.395 86.1641 369.379 86.5703 370.613 86.5703C371.973 86.5703 373.336 86.2109 374.703 85.4922L375.008 87.0742C373.703 87.8711 372.215 88.2695 370.543 88.2695ZM378.09 88V75.1445H379.73L379.977 76.9844C380.484 76.3516 381.117 75.8438 381.875 75.4609C382.641 75.0703 383.465 74.875 384.348 74.875C385.832 74.875 386.93 75.293 387.641 76.1289C388.352 76.957 388.707 78.2344 388.707 79.9609V88H386.75C386.75 82.8438 386.746 80.082 386.738 79.7148C386.707 78.6211 386.484 77.8203 386.07 77.3125C385.664 76.8047 384.98 76.5508 384.02 76.5508C383.012 76.5508 382.172 76.793 381.5 77.2773C380.828 77.7617 380.391 78.3906 380.188 79.1641C380.109 79.6875 380.07 80.2891 380.07 80.9688V88H378.09ZM396.066 88.2344C394.801 88.2344 393.902 87.9258 393.371 87.3086C392.84 86.6914 392.559 85.6953 392.527 84.3203V76.5977H390.617L390.699 75.3086L392.516 75.1445L393.184 72.2031L394.473 72.1562V75.1445H398.047V76.5977H394.473V83.9688C394.473 84.9453 394.621 85.6328 394.918 86.0312C395.215 86.4297 395.723 86.6289 396.441 86.6289C396.699 86.6289 397.258 86.5664 398.117 86.4414L398.199 87.9883C397.27 88.1523 396.559 88.2344 396.066 88.2344ZM406.051 75.0273C406.402 75.0273 406.723 75.0508 407.012 75.0977L406.941 76.9023C406.582 76.8398 406.27 76.8086 406.004 76.8086C404.91 76.8086 404.02 77.1914 403.332 77.957C402.652 78.7148 402.312 79.6562 402.312 80.7812V88H400.355C400.348 80.1094 400.344 75.8242 400.344 75.1445H401.973L402.16 77.4531C402.605 76.7266 403.172 76.1406 403.859 75.6953C404.547 75.25 405.277 75.0273 406.051 75.0273ZM412.508 86.6875C413.438 86.6875 414.254 86.4336 414.957 85.9258C415.668 85.4102 416.125 84.7188 416.328 83.8516V81.6836C416.289 81.6836 416.051 81.7031 415.613 81.7422C415.184 81.7812 414.902 81.8047 414.77 81.8125C413.074 81.9609 411.891 82.2383 411.219 82.6445C410.555 83.0508 410.223 83.7031 410.223 84.6016C410.223 85.2891 410.426 85.8086 410.832 86.1602C411.238 86.5117 411.797 86.6875 412.508 86.6875ZM416.762 88C416.645 87.5 416.531 86.9609 416.422 86.3828C415.711 87.0938 415.043 87.5859 414.418 87.8594C413.793 88.1328 413.059 88.2695 412.215 88.2695C411.012 88.2695 410.043 87.957 409.309 87.332C408.582 86.6992 408.219 85.793 408.219 84.6133C408.219 83.3008 408.715 82.3281 409.707 81.6953C410.707 81.0625 412.145 80.668 414.02 80.5117C414.277 80.4883 414.664 80.457 415.18 80.418C415.703 80.3711 416.094 80.3359 416.352 80.3125V79.1758C416.352 78.2695 416.141 77.5977 415.719 77.1602C415.297 76.7227 414.633 76.5039 413.727 76.5039C412.461 76.5039 411.184 76.8164 409.895 77.4414C409.855 77.3477 409.754 77.0781 409.59 76.6328C409.426 76.1797 409.34 75.9453 409.332 75.9297C409.902 75.6094 410.578 75.3555 411.359 75.168C412.148 74.9727 412.949 74.875 413.762 74.875C415.363 74.875 416.516 75.2266 417.219 75.9297C417.93 76.625 418.285 77.8125 418.285 79.4922V88H416.762ZM425.117 88.2344C423.867 88.2344 422.98 87.8984 422.457 87.2266C421.941 86.5547 421.684 85.3867 421.684 83.7227V70.1523L423.629 70.0352V82.9492C423.629 83.4805 423.633 83.9062 423.641 84.2266C423.656 84.5469 423.688 84.8633 423.734 85.1758C423.781 85.4805 423.844 85.7109 423.922 85.8672C424 86.0234 424.113 86.168 424.262 86.3008C424.41 86.4258 424.586 86.5117 424.789 86.5586C425 86.5977 425.258 86.6172 425.562 86.6172C425.812 86.6172 426.305 86.5703 427.039 86.4766L427.145 88.0352C426.34 88.168 425.664 88.2344 425.117 88.2344ZM430.648 75.1445V88H428.68V75.1445H430.648ZM430.648 70.4688V72.7891H428.68V70.4688H430.648ZM442.613 88H433.637V86.5234L440.211 76.6914H433.812V75.1445H442.402V76.6914L435.84 86.4531H442.613V88ZM448.742 86.6875C449.672 86.6875 450.488 86.4336 451.191 85.9258C451.902 85.4102 452.359 84.7188 452.562 83.8516V81.6836C452.523 81.6836 452.285 81.7031 451.848 81.7422C451.418 81.7812 451.137 81.8047 451.004 81.8125C449.309 81.9609 448.125 82.2383 447.453 82.6445C446.789 83.0508 446.457 83.7031 446.457 84.6016C446.457 85.2891 446.66 85.8086 447.066 86.1602C447.473 86.5117 448.031 86.6875 448.742 86.6875ZM452.996 88C452.879 87.5 452.766 86.9609 452.656 86.3828C451.945 87.0938 451.277 87.5859 450.652 87.8594C450.027 88.1328 449.293 88.2695 448.449 88.2695C447.246 88.2695 446.277 87.957 445.543 87.332C444.816 86.6992 444.453 85.793 444.453 84.6133C444.453 83.3008 444.949 82.3281 445.941 81.6953C446.941 81.0625 448.379 80.668 450.254 80.5117C450.512 80.4883 450.898 80.457 451.414 80.418C451.938 80.3711 452.328 80.3359 452.586 80.3125V79.1758C452.586 78.2695 452.375 77.5977 451.953 77.1602C451.531 76.7227 450.867 76.5039 449.961 76.5039C448.695 76.5039 447.418 76.8164 446.129 77.4414C446.09 77.3477 445.988 77.0781 445.824 76.6328C445.66 76.1797 445.574 75.9453 445.566 75.9297C446.137 75.6094 446.812 75.3555 447.594 75.168C448.383 74.9727 449.184 74.875 449.996 74.875C451.598 74.875 452.75 75.2266 453.453 75.9297C454.164 76.625 454.52 77.8125 454.52 79.4922V88H452.996ZM461.996 88.2344C460.73 88.2344 459.832 87.9258 459.301 87.3086C458.77 86.6914 458.488 85.6953 458.457 84.3203V76.5977H456.547L456.629 75.3086L458.445 75.1445L459.113 72.2031L460.402 72.1562V75.1445H463.977V76.5977H460.402V83.9688C460.402 84.9453 460.551 85.6328 460.848 86.0312C461.145 86.4297 461.652 86.6289 462.371 86.6289C462.629 86.6289 463.188 86.5664 464.047 86.4414L464.129 87.9883C463.199 88.1523 462.488 88.2344 461.996 88.2344ZM468.523 75.1445V88H466.555V75.1445H468.523ZM468.523 70.4688V72.7891H466.555V70.4688H468.523ZM473.645 81.6016C473.645 83.125 473.98 84.3477 474.652 85.2695C475.332 86.1836 476.32 86.6406 477.617 86.6406C478.898 86.6406 479.863 86.1836 480.512 85.2695C481.168 84.3555 481.496 83.125 481.496 81.5781C481.496 80.0078 481.172 78.7734 480.523 77.875C479.883 76.9688 478.902 76.5156 477.582 76.5156C476.301 76.5156 475.324 76.9766 474.652 77.8984C473.98 78.8203 473.645 80.0547 473.645 81.6016ZM483.523 81.5664C483.523 83.5586 482.992 85.1758 481.93 86.418C480.867 87.6523 479.398 88.2695 477.523 88.2695C475.719 88.2695 474.281 87.6445 473.211 86.3945C472.148 85.1445 471.617 83.5391 471.617 81.5781C471.617 79.5781 472.152 77.9609 473.223 76.7266C474.293 75.4922 475.762 74.875 477.629 74.875C479.465 74.875 480.906 75.4961 481.953 76.7383C483 77.9727 483.523 79.582 483.523 81.5664ZM486.301 88V75.1445H487.941L488.188 76.9844C488.695 76.3516 489.328 75.8438 490.086 75.4609C490.852 75.0703 491.676 74.875 492.559 74.875C494.043 74.875 495.141 75.293 495.852 76.1289C496.562 76.957 496.918 78.2344 496.918 79.9609V88H494.961C494.961 82.8438 494.957 80.082 494.949 79.7148C494.918 78.6211 494.695 77.8203 494.281 77.3125C493.875 76.8047 493.191 76.5508 492.23 76.5508C491.223 76.5508 490.383 76.793 489.711 77.2773C489.039 77.7617 488.602 78.3906 488.398 79.1641C488.32 79.6875 488.281 80.2891 488.281 80.9688V88H486.301Z" fill="#FD9109"/>
<rect x="0.261312" y="0.646358" width="146.808" height="51" rx="9.5" transform="matrix(0.925945 0.377657 -0.403321 0.915059 535.253 3.95622)" fill="#FD9109" fill-opacity="0.1"/>
<rect x="0.261312" y="0.646358" width="146.808" height="51" rx="9.5" transform="matrix(0.925945 0.377657 -0.403321 0.915059 535.253 3.95622)" stroke="#FD9109"/>
<path d="M543.49 45.258L550.48 29.3982L559.682 33.1512L558.882 34.7609L551.634 31.8045L549.346 36.9946L556.237 39.8049L555.523 41.4241L548.633 38.6138L546.09 44.383L553.577 47.4367L552.767 49.042L543.49 45.258ZM573.859 39.7306C573.107 39.4237 572.495 39.4273 572.024 39.7411C571.56 40.0579 571.095 40.7454 570.628 41.8034L570.387 42.3503L573.252 43.5187L572.666 44.8484L569.801 43.68L565.202 54.1138L563.39 53.3747L567.989 42.9409L562.726 40.7944L558.128 51.2283L556.315 50.4892L560.914 40.0554L558.983 39.2676L559.655 38.15L561.5 38.7257L561.732 38.2002C562.414 36.6906 563.184 35.7097 564.04 35.2578C564.907 34.8016 565.966 34.8288 567.217 35.3392C567.702 35.5369 568.272 35.8324 568.926 36.2258L568.188 37.5819C567.585 37.2264 567.117 36.9808 566.784 36.8451C566.032 36.5382 565.42 36.5417 564.949 36.8556C564.485 37.1724 564.02 37.8598 563.553 38.9179L563.312 39.4648L568.575 41.6112L568.807 41.0858C569.489 39.5761 570.259 38.5953 571.115 38.1433C571.982 37.6872 573.041 37.7143 574.292 38.2247C574.777 38.4224 575.346 38.718 576.001 39.1114L575.262 40.4675C574.66 40.1119 574.192 39.8663 573.859 39.7306ZM577.234 45.1429L572.049 56.9064L570.226 56.1629L575.411 44.3994L577.234 45.1429ZM579.12 40.8643L578.184 42.9875L576.361 42.244L577.297 40.1208L579.12 40.8643ZM580.393 60.6006C578.643 59.8866 577.519 58.7663 577.023 57.2397C576.534 55.7161 576.689 54.0464 577.49 52.2306C578.304 50.4034 579.46 49.125 580.96 48.3955C582.469 47.6618 584.096 47.6505 585.839 48.3616C586.454 48.6123 587.014 48.9293 587.519 49.3126C588.032 49.6987 588.401 50.0812 588.627 50.46L587.513 51.6504C586.865 50.8548 586.071 50.2653 585.131 49.8817C583.98 49.4126 582.886 49.4555 581.848 50.0104C580.817 50.5682 579.985 51.5656 579.351 53.0025C578.734 54.4037 578.573 55.6496 578.869 56.7402C579.175 57.8266 579.914 58.6088 581.086 59.0868C582.019 59.4674 583.085 59.6066 584.282 59.5045L583.881 61.0237C582.844 61.2668 581.681 61.1258 580.393 60.6006ZM593.293 51.6929L588.109 63.4564L586.286 62.7129L591.471 50.9494L593.293 51.6929ZM595.179 47.4143L594.243 49.5375L592.421 48.794L593.356 46.6708L595.179 47.4143ZM602.61 58.0608C602.359 57.2163 601.771 56.6053 600.845 56.2276C599.919 55.85 599.019 55.8669 598.147 56.2785C597.277 56.6829 596.544 57.4256 595.949 58.5067L602.231 61.0692C602.745 59.9039 602.871 58.9011 602.61 58.0608ZM596.453 67.1506C594.724 66.4455 593.6 65.346 593.08 63.8522C592.568 62.3614 592.728 60.6723 593.56 58.785C594.363 56.962 595.495 55.682 596.955 54.9448C598.418 54.2006 599.939 54.1378 601.519 54.7566C602.994 55.3585 603.942 56.3355 604.362 57.6874C604.792 59.0352 604.64 60.5419 603.906 62.2076C603.868 62.2934 603.795 62.4492 603.687 62.675C603.586 62.9037 603.514 63.0682 603.469 63.1682L595.299 59.8357C594.731 61.1814 594.618 62.3668 594.96 63.3918C595.313 64.4126 596.06 65.1561 597.203 65.6223C598.462 66.1357 599.869 66.3217 601.425 66.1803L601.069 67.743C599.54 67.9795 598.001 67.782 596.453 67.1506ZM603.549 69.7541L608.734 57.9906L610.253 58.6102L609.739 60.3867C610.465 59.9994 611.255 59.7737 612.112 59.7096C612.978 59.6413 613.82 59.7739 614.637 60.1073C616.012 60.6679 616.86 61.4649 617.181 62.4983C617.505 63.5246 617.319 64.8277 616.623 66.4076L613.38 73.7638L611.568 73.0247C613.648 68.3064 614.758 65.7778 614.899 65.4389C615.311 64.4262 615.428 63.6094 615.249 62.9883C615.078 62.3702 614.548 61.8797 613.658 61.5168C612.725 61.1362 611.849 61.0406 611.032 61.2301C610.214 61.4196 609.556 61.8299 609.056 62.4609C608.772 62.9104 608.493 63.4461 608.219 64.0681L605.383 70.5021L603.549 69.7541ZM621.323 77.2943C619.572 76.5803 618.449 75.46 617.953 73.9334C617.464 72.4097 617.619 70.74 618.419 68.9242C619.233 67.097 620.39 65.8187 621.889 65.0892C623.399 64.3555 625.025 64.3441 626.769 65.0552C627.384 65.306 627.944 65.623 628.449 66.0062C628.962 66.3924 629.331 66.7748 629.556 67.1536L628.443 68.3441C627.795 67.5485 627.001 66.9589 626.06 66.5753C624.91 66.1062 623.816 66.1491 622.778 66.704C621.747 67.2618 620.914 68.2592 620.281 69.6961C619.664 71.0973 619.503 72.3432 619.799 73.4338C620.105 74.5202 620.844 75.3024 622.016 75.7804C622.949 76.161 624.014 76.3003 625.211 76.1981L624.811 77.7173C623.773 77.9605 622.611 77.8194 621.323 77.2943ZM630.566 66.8951L632.487 67.6784L631.926 79.0001L639.584 70.5728L641.504 71.3561C634.442 78.7821 630.797 82.6088 630.568 82.8362C629.524 83.8694 628.521 84.5273 627.56 84.8101C626.596 85.1 625.535 85.0089 624.378 84.5369C624.031 84.3952 623.678 84.2176 623.32 84.0041L623.883 82.4371C624.275 82.6309 624.573 82.7691 624.775 82.8518C625.593 83.1852 626.277 83.2873 626.829 83.1582C627.385 83.0391 628.009 82.64 628.701 81.9607C629.328 81.3311 629.804 80.842 630.129 80.4935L630.566 66.8951Z" fill="#FD9109"/>
<rect x="672.5" y="53.5" width="112" height="51" rx="9.5" fill="#FD9109" fill-opacity="0.1"/>
<rect x="672.5" y="53.5" width="112" height="51" rx="9.5" stroke="#FD9109"/>
<path d="M695.711 85.1406C697.516 86.0312 699.449 86.4766 701.512 86.4766C704.051 86.4766 705.32 85.3203 705.32 83.0078C705.32 82.2578 705.117 81.6523 704.711 81.1914C704.312 80.7227 703.582 80.3555 702.52 80.0898L699.074 79.2227C696.441 78.5586 695.125 77.1523 695.125 75.0039C695.125 73.3555 695.691 72.1328 696.824 71.3359C697.957 70.5312 699.523 70.1289 701.523 70.1289C702.57 70.1289 703.551 70.2422 704.465 70.4688C705.379 70.6953 706.145 71 706.762 71.3828L706.176 73.0352C705.652 72.7461 704.957 72.4883 704.09 72.2617C703.23 72.0352 702.359 71.9219 701.477 71.9219C698.648 71.9219 697.234 72.9023 697.234 74.8633C697.234 75.5273 697.449 76.0625 697.879 76.4688C698.316 76.8672 698.969 77.1719 699.836 77.3828L703.129 78.1797C704.535 78.5156 705.602 79.0547 706.328 79.7969C707.055 80.5312 707.418 81.5781 707.418 82.9375C707.418 84.7031 706.875 86.0352 705.789 86.9336C704.711 87.8242 703.242 88.2695 701.383 88.2695C699.992 88.2695 698.754 88.1289 697.668 87.8477C696.59 87.5586 695.734 87.2188 695.102 86.8281L695.711 85.1406ZM710.066 93.5781V75.1445H711.789L711.977 76.8906C713.102 75.5469 714.453 74.875 716.031 74.875C717.203 74.875 718.195 75.168 719.008 75.7539C719.82 76.3398 720.418 77.1328 720.801 78.1328C721.191 79.1328 721.387 80.3008 721.387 81.6367C721.387 82.918 721.176 84.0586 720.754 85.0586C720.332 86.0508 719.711 86.8359 718.891 87.4141C718.078 87.9844 717.125 88.2695 716.031 88.2695C715.203 88.2695 714.426 88.0859 713.699 87.7188C712.973 87.3438 712.391 86.8516 711.953 86.2422C712 87.0859 712.023 87.9062 712.023 88.7031V93.4492L710.066 93.5781ZM715.762 86.6172C716.355 86.6172 716.887 86.4844 717.355 86.2188C717.824 85.9453 718.203 85.5742 718.492 85.1055C718.781 84.6367 719 84.1055 719.148 83.5117C719.297 82.9102 719.371 82.2617 719.371 81.5664C719.371 80.0977 719.062 78.8945 718.445 77.957C717.828 77.0117 716.926 76.5391 715.738 76.5391C713.254 76.5391 712.012 78.1445 712.012 81.3555C712.012 83.0977 712.301 84.4102 712.879 85.293C713.465 86.1758 714.426 86.6172 715.762 86.6172ZM731.559 77.5234C730.988 76.8359 730.203 76.4922 729.203 76.4922C728.203 76.4922 727.387 76.8477 726.754 77.5586C726.121 78.2617 725.75 79.2266 725.641 80.4531H732.426C732.426 79.1797 732.137 78.2031 731.559 77.5234ZM729.59 88.2695C727.723 88.2695 726.25 87.6758 725.172 86.4883C724.102 85.3008 723.566 83.6758 723.566 81.6133C723.566 79.6211 724.086 78.0078 725.125 76.7734C726.164 75.5312 727.531 74.8984 729.227 74.875C730.82 74.875 732.082 75.4219 733.012 76.5156C733.949 77.6016 734.418 79.0547 734.418 80.875C734.418 80.9688 734.414 81.1406 734.406 81.3906C734.406 81.6406 734.406 81.8203 734.406 81.9297H725.582C725.605 83.3906 725.98 84.5312 726.707 85.3516C727.441 86.1641 728.426 86.5703 729.66 86.5703C731.02 86.5703 732.383 86.2109 733.75 85.4922L734.055 87.0742C732.75 87.8711 731.262 88.2695 729.59 88.2695ZM744.543 77.5234C743.973 76.8359 743.188 76.4922 742.188 76.4922C741.188 76.4922 740.371 76.8477 739.738 77.5586C739.105 78.2617 738.734 79.2266 738.625 80.4531H745.41C745.41 79.1797 745.121 78.2031 744.543 77.5234ZM742.574 88.2695C740.707 88.2695 739.234 87.6758 738.156 86.4883C737.086 85.3008 736.551 83.6758 736.551 81.6133C736.551 79.6211 737.07 78.0078 738.109 76.7734C739.148 75.5312 740.516 74.8984 742.211 74.875C743.805 74.875 745.066 75.4219 745.996 76.5156C746.934 77.6016 747.402 79.0547 747.402 80.875C747.402 80.9688 747.398 81.1406 747.391 81.3906C747.391 81.6406 747.391 81.8203 747.391 81.9297H738.566C738.59 83.3906 738.965 84.5312 739.691 85.3516C740.426 86.1641 741.41 86.5703 742.645 86.5703C744.004 86.5703 745.367 86.2109 746.734 85.4922L747.039 87.0742C745.734 87.8711 744.246 88.2695 742.574 88.2695ZM755.137 86.582C756.426 86.582 757.383 86.168 758.008 85.3398C758.641 84.5117 758.957 83.3281 758.957 81.7891C758.957 80.0547 758.652 78.75 758.043 77.875C757.441 76.9922 756.465 76.5508 755.113 76.5508C754.512 76.5508 753.98 76.6797 753.52 76.9375C753.059 77.1953 752.688 77.5547 752.406 78.0156C752.125 78.4766 751.91 79.0078 751.762 79.6094C751.621 80.2031 751.551 80.8555 751.551 81.5664C751.551 82.5664 751.672 83.4336 751.914 84.168C752.164 84.9023 752.562 85.4883 753.109 85.9258C753.656 86.3633 754.332 86.582 755.137 86.582ZM758.992 86.1367C758.57 86.7852 758.008 87.3008 757.305 87.6836C756.602 88.0664 755.816 88.2578 754.949 88.2578C753.254 88.2578 751.926 87.6562 750.965 86.4531C750.004 85.2422 749.523 83.5977 749.523 81.5195C749.523 79.5352 750.012 77.9336 750.988 76.7148C751.965 75.4883 753.273 74.875 754.914 74.875C755.766 74.875 756.566 75.0625 757.316 75.4375C758.074 75.8047 758.641 76.3008 759.016 76.9258L758.98 75.8125V70.1523L760.914 70.0352V88H759.25L758.992 86.1367Z" fill="#FD9109"/>
<rect x="759.5" y="0.5" width="161" height="51" rx="9.5" fill="#FD9109" fill-opacity="0.1"/>
<rect x="759.5" y="0.5" width="161" height="51" rx="9.5" stroke="#FD9109"/>
<path d="M786.16 35H784.133V17.668H786.16V35ZM790.004 35V22.1445H791.645L791.891 23.9844C792.398 23.3516 793.031 22.8438 793.789 22.4609C794.555 22.0703 795.379 21.875 796.262 21.875C797.746 21.875 798.844 22.293 799.555 23.1289C800.266 23.957 800.621 25.2344 800.621 26.9609V35H798.664C798.664 29.8438 798.66 27.082 798.652 26.7148C798.621 25.6211 798.398 24.8203 797.984 24.3125C797.578 23.8047 796.895 23.5508 795.934 23.5508C794.926 23.5508 794.086 23.793 793.414 24.2773C792.742 24.7617 792.305 25.3906 792.102 26.1641C792.023 26.6875 791.984 27.2891 791.984 27.9688V35H790.004ZM803.879 35V22.1445H805.52L805.766 23.9844C806.273 23.3516 806.906 22.8438 807.664 22.4609C808.43 22.0703 809.254 21.875 810.137 21.875C811.621 21.875 812.719 22.293 813.43 23.1289C814.141 23.957 814.496 25.2344 814.496 26.9609V35H812.539C812.539 29.8438 812.535 27.082 812.527 26.7148C812.496 25.6211 812.273 24.8203 811.859 24.3125C811.453 23.8047 810.77 23.5508 809.809 23.5508C808.801 23.5508 807.961 23.793 807.289 24.2773C806.617 24.7617 806.18 25.3906 805.977 26.1641C805.898 26.6875 805.859 27.2891 805.859 27.9688V35H803.879ZM819.184 28.6016C819.184 30.125 819.52 31.3477 820.191 32.2695C820.871 33.1836 821.859 33.6406 823.156 33.6406C824.438 33.6406 825.402 33.1836 826.051 32.2695C826.707 31.3555 827.035 30.125 827.035 28.5781C827.035 27.0078 826.711 25.7734 826.062 24.875C825.422 23.9688 824.441 23.5156 823.121 23.5156C821.84 23.5156 820.863 23.9766 820.191 24.8984C819.52 25.8203 819.184 27.0547 819.184 28.6016ZM829.062 28.5664C829.062 30.5586 828.531 32.1758 827.469 33.418C826.406 34.6523 824.938 35.2695 823.062 35.2695C821.258 35.2695 819.82 34.6445 818.75 33.3945C817.688 32.1445 817.156 30.5391 817.156 28.5781C817.156 26.5781 817.691 24.9609 818.762 23.7266C819.832 22.4922 821.301 21.875 823.168 21.875C825.004 21.875 826.445 22.4961 827.492 23.7383C828.539 24.9727 829.062 26.582 829.062 28.5664ZM834.992 35L830.012 22.1445H832.109L834.945 29.7852C834.945 29.7852 835.336 30.8711 836.117 33.043C836.383 32.207 836.75 31.1289 837.219 29.8086C837.812 28.1445 838.734 25.5898 839.984 22.1445H842.07L837.125 35H834.992ZM847.344 33.6875C848.273 33.6875 849.09 33.4336 849.793 32.9258C850.504 32.4102 850.961 31.7188 851.164 30.8516V28.6836C851.125 28.6836 850.887 28.7031 850.449 28.7422C850.02 28.7812 849.738 28.8047 849.605 28.8125C847.91 28.9609 846.727 29.2383 846.055 29.6445C845.391 30.0508 845.059 30.7031 845.059 31.6016C845.059 32.2891 845.262 32.8086 845.668 33.1602C846.074 33.5117 846.633 33.6875 847.344 33.6875ZM851.598 35C851.48 34.5 851.367 33.9609 851.258 33.3828C850.547 34.0938 849.879 34.5859 849.254 34.8594C848.629 35.1328 847.895 35.2695 847.051 35.2695C845.848 35.2695 844.879 34.957 844.145 34.332C843.418 33.6992 843.055 32.793 843.055 31.6133C843.055 30.3008 843.551 29.3281 844.543 28.6953C845.543 28.0625 846.98 27.668 848.855 27.5117C849.113 27.4883 849.5 27.457 850.016 27.418C850.539 27.3711 850.93 27.3359 851.188 27.3125V26.1758C851.188 25.2695 850.977 24.5977 850.555 24.1602C850.133 23.7227 849.469 23.5039 848.562 23.5039C847.297 23.5039 846.02 23.8164 844.73 24.4414C844.691 24.3477 844.59 24.0781 844.426 23.6328C844.262 23.1797 844.176 22.9453 844.168 22.9297C844.738 22.6094 845.414 22.3555 846.195 22.168C846.984 21.9727 847.785 21.875 848.598 21.875C850.199 21.875 851.352 22.2266 852.055 22.9297C852.766 23.625 853.121 24.8125 853.121 26.4922V35H851.598ZM860.598 35.2344C859.332 35.2344 858.434 34.9258 857.902 34.3086C857.371 33.6914 857.09 32.6953 857.059 31.3203V23.5977H855.148L855.23 22.3086L857.047 22.1445L857.715 19.2031L859.004 19.1562V22.1445H862.578V23.5977H859.004V30.9688C859.004 31.9453 859.152 32.6328 859.449 33.0312C859.746 33.4297 860.254 33.6289 860.973 33.6289C861.23 33.6289 861.789 33.5664 862.648 33.4414L862.73 34.9883C861.801 35.1523 861.09 35.2344 860.598 35.2344ZM867.125 22.1445V35H865.156V22.1445H867.125ZM867.125 17.4688V19.7891H865.156V17.4688H867.125ZM872.246 28.6016C872.246 30.125 872.582 31.3477 873.254 32.2695C873.934 33.1836 874.922 33.6406 876.219 33.6406C877.5 33.6406 878.465 33.1836 879.113 32.2695C879.77 31.3555 880.098 30.125 880.098 28.5781C880.098 27.0078 879.773 25.7734 879.125 24.875C878.484 23.9688 877.504 23.5156 876.184 23.5156C874.902 23.5156 873.926 23.9766 873.254 24.8984C872.582 25.8203 872.246 27.0547 872.246 28.6016ZM882.125 28.5664C882.125 30.5586 881.594 32.1758 880.531 33.418C879.469 34.6523 878 35.2695 876.125 35.2695C874.32 35.2695 872.883 34.6445 871.812 33.3945C870.75 32.1445 870.219 30.5391 870.219 28.5781C870.219 26.5781 870.754 24.9609 871.824 23.7266C872.895 22.4922 874.363 21.875 876.23 21.875C878.066 21.875 879.508 22.4961 880.555 23.7383C881.602 24.9727 882.125 26.582 882.125 28.5664ZM884.902 35V22.1445H886.543L886.789 23.9844C887.297 23.3516 887.93 22.8438 888.688 22.4609C889.453 22.0703 890.277 21.875 891.16 21.875C892.645 21.875 893.742 22.293 894.453 23.1289C895.164 23.957 895.52 25.2344 895.52 26.9609V35H893.562C893.562 29.8438 893.559 27.082 893.551 26.7148C893.52 25.6211 893.297 24.8203 892.883 24.3125C892.477 23.8047 891.793 23.5508 890.832 23.5508C889.824 23.5508 888.984 23.793 888.312 24.2773C887.641 24.7617 887.203 25.3906 887 26.1641C886.922 26.6875 886.883 27.2891 886.883 27.9688V35H884.902Z" fill="#FD9109"/>
<rect x="898.5" y="53.5" width="153" height="51" rx="9.5" fill="#FD9109" fill-opacity="0.1"/>
<rect x="898.5" y="53.5" width="153" height="51" rx="9.5" stroke="#FD9109"/>
<path d="M924.797 72.2852V78.1445C925.117 78.1445 925.777 78.1523 926.777 78.168C927.785 78.1836 928.562 78.1914 929.109 78.1914C930.602 78.1914 931.641 77.9453 932.227 77.4531C932.812 76.9531 933.105 76.1641 933.105 75.0859C933.105 74.1406 932.824 73.4375 932.262 72.9766C931.699 72.5156 930.758 72.2852 929.438 72.2852H924.797ZM935.906 88H933.562L931.172 82.5625C930.523 81.1016 930.109 80.2227 929.93 79.9258C929.359 79.9648 928.684 79.9844 927.902 79.9844L924.797 79.8906V88H922.723V70.4688H928.266C928.906 70.4688 929.473 70.4844 929.965 70.5156C930.457 70.5469 930.945 70.6055 931.43 70.6914C931.922 70.7695 932.348 70.8828 932.707 71.0312C933.066 71.1719 933.402 71.3594 933.715 71.5938C934.027 71.8203 934.277 72.0938 934.465 72.4141C934.66 72.7344 934.812 73.1172 934.922 73.5625C935.031 74 935.086 74.4961 935.086 75.0508C935.086 76.1445 934.797 77.0859 934.219 77.875C933.648 78.6641 932.836 79.2109 931.781 79.5156C931.781 79.5312 931.859 79.6719 932.016 79.9375C932.172 80.2031 932.355 80.5312 932.566 80.9219C932.785 81.3047 932.953 81.625 933.07 81.8828L935.906 88ZM945.785 77.5234C945.215 76.8359 944.43 76.4922 943.43 76.4922C942.43 76.4922 941.613 76.8477 940.98 77.5586C940.348 78.2617 939.977 79.2266 939.867 80.4531H946.652C946.652 79.1797 946.363 78.2031 945.785 77.5234ZM943.816 88.2695C941.949 88.2695 940.477 87.6758 939.398 86.4883C938.328 85.3008 937.793 83.6758 937.793 81.6133C937.793 79.6211 938.312 78.0078 939.352 76.7734C940.391 75.5312 941.758 74.8984 943.453 74.875C945.047 74.875 946.309 75.4219 947.238 76.5156C948.176 77.6016 948.645 79.0547 948.645 80.875C948.645 80.9688 948.641 81.1406 948.633 81.3906C948.633 81.6406 948.633 81.8203 948.633 81.9297H939.809C939.832 83.3906 940.207 84.5312 940.934 85.3516C941.668 86.1641 942.652 86.5703 943.887 86.5703C945.246 86.5703 946.609 86.2109 947.977 85.4922L948.281 87.0742C946.977 87.8711 945.488 88.2695 943.816 88.2695ZM954.82 88.2344C953.57 88.2344 952.684 87.8984 952.16 87.2266C951.645 86.5547 951.387 85.3867 951.387 83.7227V70.1523L953.332 70.0352V82.9492C953.332 83.4805 953.336 83.9062 953.344 84.2266C953.359 84.5469 953.391 84.8633 953.438 85.1758C953.484 85.4805 953.547 85.7109 953.625 85.8672C953.703 86.0234 953.816 86.168 953.965 86.3008C954.113 86.4258 954.289 86.5117 954.492 86.5586C954.703 86.5977 954.961 86.6172 955.266 86.6172C955.516 86.6172 956.008 86.5703 956.742 86.4766L956.848 88.0352C956.043 88.168 955.367 88.2344 954.82 88.2344ZM960.352 75.1445V88H958.383V75.1445H960.352ZM960.352 70.4688V72.7891H958.383V70.4688H960.352ZM967.758 86.6875C968.688 86.6875 969.504 86.4336 970.207 85.9258C970.918 85.4102 971.375 84.7188 971.578 83.8516V81.6836C971.539 81.6836 971.301 81.7031 970.863 81.7422C970.434 81.7812 970.152 81.8047 970.02 81.8125C968.324 81.9609 967.141 82.2383 966.469 82.6445C965.805 83.0508 965.473 83.7031 965.473 84.6016C965.473 85.2891 965.676 85.8086 966.082 86.1602C966.488 86.5117 967.047 86.6875 967.758 86.6875ZM972.012 88C971.895 87.5 971.781 86.9609 971.672 86.3828C970.961 87.0938 970.293 87.5859 969.668 87.8594C969.043 88.1328 968.309 88.2695 967.465 88.2695C966.262 88.2695 965.293 87.957 964.559 87.332C963.832 86.6992 963.469 85.793 963.469 84.6133C963.469 83.3008 963.965 82.3281 964.957 81.6953C965.957 81.0625 967.395 80.668 969.27 80.5117C969.527 80.4883 969.914 80.457 970.43 80.418C970.953 80.3711 971.344 80.3359 971.602 80.3125V79.1758C971.602 78.2695 971.391 77.5977 970.969 77.1602C970.547 76.7227 969.883 76.5039 968.977 76.5039C967.711 76.5039 966.434 76.8164 965.145 77.4414C965.105 77.3477 965.004 77.0781 964.84 76.6328C964.676 76.1797 964.59 75.9453 964.582 75.9297C965.152 75.6094 965.828 75.3555 966.609 75.168C967.398 74.9727 968.199 74.875 969.012 74.875C970.613 74.875 971.766 75.2266 972.469 75.9297C973.18 76.625 973.535 77.8125 973.535 79.4922V88H972.012ZM982.758 76.5039C981.516 76.5039 980.562 76.9336 979.898 77.793C979.242 78.6445 978.914 79.8984 978.914 81.5547C978.914 84.9453 980.191 86.6406 982.746 86.6406C983.379 86.6406 983.934 86.5117 984.41 86.2539C984.895 85.9883 985.273 85.6211 985.547 85.1523C985.828 84.6758 986.035 84.1406 986.168 83.5469C986.309 82.9531 986.379 82.293 986.379 81.5664C986.379 80.582 986.262 79.7227 986.027 78.9883C985.801 78.2539 985.41 77.6562 984.855 77.1953C984.301 76.7344 983.602 76.5039 982.758 76.5039ZM982.957 74.875C984.098 74.875 985.082 75.1641 985.91 75.7422C986.738 76.3203 987.359 77.1055 987.773 78.0977C988.188 79.0898 988.395 80.2266 988.395 81.5078C988.395 82.8359 988.188 84.0039 987.773 85.0117C987.367 86.0195 986.746 86.8164 985.91 87.4023C985.082 87.9805 984.09 88.2695 982.934 88.2695C982.082 88.2695 981.305 88.0859 980.602 87.7188C979.898 87.3516 979.312 86.8516 978.844 86.2188L978.645 88H976.969V70.1523L978.926 70.0352V74.2891C978.926 75.3359 978.91 76.2344 978.879 76.9844C979.332 76.3359 979.918 75.8242 980.637 75.4492C981.363 75.0664 982.137 74.875 982.957 74.875ZM993.469 75.1445V88H991.5V75.1445H993.469ZM993.469 70.4688V72.7891H991.5V70.4688H993.469ZM1000.62 88.2344C999.367 88.2344 998.48 87.8984 997.957 87.2266C997.441 86.5547 997.184 85.3867 997.184 83.7227V70.1523L999.129 70.0352V82.9492C999.129 83.4805 999.133 83.9062 999.141 84.2266C999.156 84.5469 999.188 84.8633 999.234 85.1758C999.281 85.4805 999.344 85.7109 999.422 85.8672C999.5 86.0234 999.613 86.168 999.762 86.3008C999.91 86.4258 1000.09 86.5117 1000.29 86.5586C1000.5 86.5977 1000.76 86.6172 1001.06 86.6172C1001.31 86.6172 1001.8 86.5703 1002.54 86.4766L1002.64 88.0352C1001.84 88.168 1001.16 88.2344 1000.62 88.2344ZM1006.15 75.1445V88H1004.18V75.1445H1006.15ZM1006.15 70.4688V72.7891H1004.18V70.4688H1006.15ZM1013.94 88.2344C1012.68 88.2344 1011.78 87.9258 1011.25 87.3086C1010.71 86.6914 1010.43 85.6953 1010.4 84.3203V76.5977H1008.49L1008.57 75.3086L1010.39 75.1445L1011.06 72.2031L1012.35 72.1562V75.1445H1015.92V76.5977H1012.35V83.9688C1012.35 84.9453 1012.5 85.6328 1012.79 86.0312C1013.09 86.4297 1013.6 86.6289 1014.32 86.6289C1014.57 86.6289 1015.13 86.5664 1015.99 86.4414L1016.07 87.9883C1015.14 88.1523 1014.43 88.2344 1013.94 88.2344ZM1016.52 75.1445H1018.59L1022.65 85.8438L1026.26 75.1445H1028.33C1024.86 84.6914 1023.07 89.6133 1022.95 89.9102C1022.41 91.2617 1021.76 92.25 1021 92.875C1020.23 93.5078 1019.22 93.8242 1017.97 93.8242C1017.6 93.8242 1017.2 93.793 1016.79 93.7305L1016.67 92.0664C1017.11 92.0977 1017.44 92.1133 1017.66 92.1133C1018.54 92.1133 1019.21 91.9492 1019.66 91.6211C1020.12 91.3008 1020.53 90.6953 1020.89 89.8047C1021.21 88.9844 1021.45 88.3516 1021.61 87.9062L1016.52 75.1445Z" fill="#FD9109"/>
<rect x="1052.5" y="53.5" width="121" height="51" rx="9.5" fill="#FD9109" fill-opacity="0.1"/>
<rect x="1052.5" y="53.5" width="121" height="51" rx="9.5" stroke="#FD9109"/>
<path d="M1078.29 88H1076.21V70.4688H1081.86C1082.72 70.4688 1083.5 70.5586 1084.19 70.7383C1084.89 70.918 1085.5 71.1914 1086.04 71.5586C1086.58 71.9258 1087 72.418 1087.3 73.0352C1087.59 73.6523 1087.74 74.3711 1087.74 75.1914C1087.74 75.8711 1087.68 76.4805 1087.55 77.0195C1087.43 77.5508 1087.21 78.0508 1086.91 78.5195C1086.61 78.9883 1086.21 79.3789 1085.71 79.6914C1085.22 79.9961 1084.59 80.2383 1083.82 80.418C1083.05 80.5898 1082.16 80.6758 1081.14 80.6758C1080.34 80.6758 1079.39 80.625 1078.29 80.5234V88ZM1081.34 78.8828C1082.11 78.8828 1082.77 78.8086 1083.31 78.6602C1083.86 78.5117 1084.28 78.3281 1084.57 78.1094C1084.86 77.8906 1085.09 77.6055 1085.26 77.2539C1085.43 76.9023 1085.54 76.582 1085.57 76.293C1085.61 75.9961 1085.63 75.6406 1085.63 75.2266C1085.63 74.2344 1085.3 73.5039 1084.62 73.0352C1083.96 72.5664 1083.05 72.332 1081.91 72.332H1078.29V78.8594C1079.79 78.875 1080.81 78.8828 1081.34 78.8828ZM1095.54 75.0273C1095.89 75.0273 1096.21 75.0508 1096.5 75.0977L1096.43 76.9023C1096.07 76.8398 1095.75 76.8086 1095.49 76.8086C1094.39 76.8086 1093.5 77.1914 1092.82 77.957C1092.14 78.7148 1091.8 79.6562 1091.8 80.7812V88H1089.84C1089.83 80.1094 1089.83 75.8242 1089.83 75.1445H1091.46L1091.64 77.4531C1092.09 76.7266 1092.66 76.1406 1093.34 75.6953C1094.03 75.25 1094.76 75.0273 1095.54 75.0273ZM1100.82 75.1445V88H1098.85V75.1445H1100.82ZM1100.82 70.4688V72.7891H1098.85V70.4688H1100.82ZM1107.8 88L1102.82 75.1445H1104.92L1107.76 82.7852C1107.76 82.7852 1108.15 83.8711 1108.93 86.043C1109.2 85.207 1109.56 84.1289 1110.03 82.8086C1110.62 81.1445 1111.55 78.5898 1112.8 75.1445H1114.88L1109.94 88H1107.8ZM1120.16 86.6875C1121.09 86.6875 1121.9 86.4336 1122.61 85.9258C1123.32 85.4102 1123.77 84.7188 1123.98 83.8516V81.6836C1123.94 81.6836 1123.7 81.7031 1123.26 81.7422C1122.83 81.7812 1122.55 81.8047 1122.42 81.8125C1120.72 81.9609 1119.54 82.2383 1118.87 82.6445C1118.2 83.0508 1117.87 83.7031 1117.87 84.6016C1117.87 85.2891 1118.07 85.8086 1118.48 86.1602C1118.89 86.5117 1119.45 86.6875 1120.16 86.6875ZM1124.41 88C1124.29 87.5 1124.18 86.9609 1124.07 86.3828C1123.36 87.0938 1122.69 87.5859 1122.07 87.8594C1121.44 88.1328 1120.71 88.2695 1119.86 88.2695C1118.66 88.2695 1117.69 87.957 1116.96 87.332C1116.23 86.6992 1115.87 85.793 1115.87 84.6133C1115.87 83.3008 1116.36 82.3281 1117.36 81.6953C1118.36 81.0625 1119.79 80.668 1121.67 80.5117C1121.93 80.4883 1122.31 80.457 1122.83 80.418C1123.35 80.3711 1123.74 80.3359 1124 80.3125V79.1758C1124 78.2695 1123.79 77.5977 1123.37 77.1602C1122.95 76.7227 1122.28 76.5039 1121.38 76.5039C1120.11 76.5039 1118.83 76.8164 1117.54 77.4414C1117.5 77.3477 1117.4 77.0781 1117.24 76.6328C1117.07 76.1797 1116.99 75.9453 1116.98 75.9297C1117.55 75.6094 1118.23 75.3555 1119.01 75.168C1119.8 74.9727 1120.6 74.875 1121.41 74.875C1123.01 74.875 1124.16 75.2266 1124.87 75.9297C1125.58 76.625 1125.93 77.8125 1125.93 79.4922V88H1124.41ZM1134.75 88.2695C1132.86 88.2695 1131.38 87.6562 1130.3 86.4297C1129.24 85.2031 1128.71 83.5977 1128.71 81.6133C1128.72 79.6133 1129.26 77.9922 1130.34 76.75C1131.43 75.5 1132.91 74.875 1134.79 74.875C1135.46 74.875 1136.1 74.957 1136.71 75.1211C1137.34 75.2852 1137.83 75.5 1138.19 75.7656L1137.65 77.2891C1136.74 76.7969 1135.77 76.5508 1134.76 76.5508C1133.52 76.5508 1132.53 77.0039 1131.8 77.9102C1131.09 78.8164 1130.73 80.0547 1130.73 81.625C1130.73 83.1562 1131.08 84.3711 1131.79 85.2695C1132.51 86.1602 1133.5 86.6055 1134.77 86.6055C1135.78 86.6055 1136.81 86.332 1137.86 85.7852L1138.11 87.3438C1137.26 87.9609 1136.14 88.2695 1134.75 88.2695ZM1139.01 75.1445H1141.09L1145.14 85.8438L1148.75 75.1445H1150.82C1147.36 84.6914 1145.56 89.6133 1145.45 89.9102C1144.91 91.2617 1144.25 92.25 1143.49 92.875C1142.72 93.5078 1141.71 93.8242 1140.46 93.8242C1140.09 93.8242 1139.7 93.793 1139.28 93.7305L1139.16 92.0664C1139.6 92.0977 1139.93 92.1133 1140.15 92.1133C1141.03 92.1133 1141.7 91.9492 1142.15 91.6211C1142.61 91.3008 1143.02 90.6953 1143.38 89.8047C1143.7 88.9844 1143.94 88.3516 1144.1 87.9062L1139.01 75.1445Z" fill="#FD9109"/>
<rect x="1174.5" y="53.5" width="113" height="51" rx="9.5" fill="#FD9109" fill-opacity="0.1"/>
<rect x="1174.5" y="53.5" width="113" height="51" rx="9.5" stroke="#FD9109"/>
<path d="M1203.46 79.5859H1208.04V81.1797H1203.45V86.207H1201.85V81.1797H1197.2V79.5859H1201.86V74.6172H1203.46V79.5859ZM1227.2 88V81.3086C1227.2 80.6836 1227.18 80.1602 1227.15 79.7383C1227.12 79.3164 1227.06 78.8867 1226.96 78.4492C1226.87 78.0117 1226.73 77.668 1226.55 77.418C1226.38 77.1602 1226.14 76.9531 1225.82 76.7969C1225.51 76.6328 1225.14 76.5508 1224.7 76.5508C1223.84 76.5508 1223.11 76.7812 1222.5 77.2422C1221.89 77.7031 1221.46 78.3516 1221.21 79.1875C1221.14 79.75 1221.1 80.3516 1221.1 80.9922V88H1219.14V81.0977C1219.14 80.5195 1219.12 80.0195 1219.09 79.5977C1219.05 79.168 1218.97 78.7539 1218.86 78.3555C1218.75 77.9492 1218.61 77.6211 1218.42 77.3711C1218.24 77.1211 1218 76.9219 1217.69 76.7734C1217.39 76.625 1217.02 76.5508 1216.6 76.5508C1215.66 76.5508 1214.88 76.7891 1214.23 77.2656C1213.6 77.7422 1213.18 78.375 1212.96 79.1641C1212.89 79.7656 1212.85 80.418 1212.85 81.1211V88H1210.89C1210.88 79.9609 1210.87 75.6758 1210.87 75.1445H1212.51L1212.76 76.9844C1213.15 76.3906 1213.7 75.8906 1214.42 75.4844C1215.14 75.0781 1215.96 74.875 1216.87 74.875C1217.35 74.875 1217.79 74.9258 1218.18 75.0273C1218.59 75.1211 1218.93 75.2422 1219.19 75.3906C1219.46 75.5391 1219.71 75.7188 1219.92 75.9297C1220.13 76.1328 1220.29 76.3359 1220.41 76.5391C1220.53 76.7344 1220.62 76.9414 1220.7 77.1602C1221.64 75.6367 1223.07 74.875 1225 74.875C1226.43 74.875 1227.48 75.2852 1228.14 76.1055C1228.82 76.918 1229.15 78.125 1229.15 79.7266V88H1227.2ZM1233.09 81.6016C1233.09 83.125 1233.43 84.3477 1234.1 85.2695C1234.78 86.1836 1235.77 86.6406 1237.06 86.6406C1238.34 86.6406 1239.31 86.1836 1239.96 85.2695C1240.61 84.3555 1240.94 83.125 1240.94 81.5781C1240.94 80.0078 1240.62 78.7734 1239.97 77.875C1239.33 76.9688 1238.35 76.5156 1237.03 76.5156C1235.75 76.5156 1234.77 76.9766 1234.1 77.8984C1233.43 78.8203 1233.09 80.0547 1233.09 81.6016ZM1242.97 81.5664C1242.97 83.5586 1242.44 85.1758 1241.38 86.418C1240.31 87.6523 1238.84 88.2695 1236.97 88.2695C1235.16 88.2695 1233.73 87.6445 1232.66 86.3945C1231.59 85.1445 1231.06 83.5391 1231.06 81.5781C1231.06 79.5781 1231.6 77.9609 1232.67 76.7266C1233.74 75.4922 1235.21 74.875 1237.07 74.875C1238.91 74.875 1240.35 75.4961 1241.4 76.7383C1242.45 77.9727 1242.97 79.582 1242.97 81.5664ZM1251.51 75.0273C1251.86 75.0273 1252.18 75.0508 1252.47 75.0977L1252.4 76.9023C1252.04 76.8398 1251.73 76.8086 1251.46 76.8086C1250.37 76.8086 1249.48 77.1914 1248.79 77.957C1248.11 78.7148 1247.77 79.6562 1247.77 80.7812V88H1245.82C1245.81 80.1094 1245.8 75.8242 1245.8 75.1445H1247.43L1247.62 77.4531C1248.07 76.7266 1248.63 76.1406 1249.32 75.6953C1250.01 75.25 1250.74 75.0273 1251.51 75.0273ZM1261.66 77.5234C1261.09 76.8359 1260.3 76.4922 1259.3 76.4922C1258.3 76.4922 1257.49 76.8477 1256.86 77.5586C1256.22 78.2617 1255.85 79.2266 1255.74 80.4531H1262.53C1262.53 79.1797 1262.24 78.2031 1261.66 77.5234ZM1259.69 88.2695C1257.82 88.2695 1256.35 87.6758 1255.27 86.4883C1254.2 85.3008 1253.67 83.6758 1253.67 81.6133C1253.67 79.6211 1254.19 78.0078 1255.23 76.7734C1256.27 75.5312 1257.63 74.8984 1259.33 74.875C1260.92 74.875 1262.18 75.4219 1263.11 76.5156C1264.05 77.6016 1264.52 79.0547 1264.52 80.875C1264.52 80.9688 1264.52 81.1406 1264.51 81.3906C1264.51 81.6406 1264.51 81.8203 1264.51 81.9297H1255.68C1255.71 83.3906 1256.08 84.5312 1256.81 85.3516C1257.54 86.1641 1258.53 86.5703 1259.76 86.5703C1261.12 86.5703 1262.48 86.2109 1263.85 85.4922L1264.16 87.0742C1262.85 87.8711 1261.36 88.2695 1259.69 88.2695Z" fill="#FD9109"/>
</svg>
